<svg width="30" height="29" viewBox="0 0 30 29" fill="none" xmlns="http://www.w3.org/2000/svg">
<path fill-rule="evenodd" clip-rule="evenodd" d="M1.87318 0.0765491C0.973785 0.295251 0.294949 1.03744 0.133613 1.97833C0.04861 2.47416 0.14727 4.51236 0.31705 5.76858C1.01527 10.9331 3.00582 15.4462 6.38311 19.5219C6.98816 20.2521 8.84996 22.1141 9.58013 22.7192C13.6555 26.0967 18.1683 28.0874 23.3324 28.7857C24.5979 28.9568 26.6263 29.0542 27.1288 28.9681C28.0894 28.8033 28.8405 28.0907 29.0388 27.1558C29.0812 26.9562 29.1025 25.9005 29.1025 24.0082C29.1025 20.9739 29.0906 20.819 28.8155 20.2796C28.6596 19.9741 28.2862 19.5747 27.9989 19.4064C27.5668 19.1531 27.2907 19.0913 26.3541 19.0378C24.593 18.9372 23.4652 18.7568 22.0489 18.3489C21.3266 18.141 21.2117 18.123 20.7395 18.1436C20.2831 18.1636 20.1777 18.1894 19.847 18.3624C19.6408 18.4702 18.7072 19.1387 17.7723 19.8478C16.8375 20.5569 16.0543 21.1371 16.0318 21.1371C15.957 21.1371 14.8592 20.4974 14.1986 20.069C11.7478 18.4792 9.88184 16.4778 8.35983 13.8064C8.01539 13.2019 7.95572 13.0608 8.00859 12.9762C8.04362 12.9201 8.63915 12.1257 9.33198 11.2108C10.0248 10.296 10.6501 9.44451 10.7215 9.3187C10.7929 9.19288 10.8929 8.92765 10.9437 8.72924C11.0604 8.27393 11.0263 7.97543 10.7431 6.9688C10.3502 5.57232 10.1563 4.34245 10.091 2.83166C10.0532 1.95691 9.96525 1.53197 9.74379 1.15408C9.42752 0.614321 8.80088 0.17023 8.193 0.0549C7.74452 -0.0301665 2.23433 -0.0112943 1.87318 0.0765491Z" fill="white"/>
</svg>
