<svg width="22" height="23" viewBox="0 0 22 23" fill="none" xmlns="http://www.w3.org/2000/svg">
<circle cx="11" cy="11.8916" r="11" fill="#0B9CEF"/>
<path fill-rule="evenodd" clip-rule="evenodd" d="M5.88764 6.0991C5.52643 6.18694 5.25379 6.48502 5.18899 6.8629C5.15485 7.06204 5.19448 7.88063 5.26267 8.38515C5.54309 10.4593 6.34254 12.2719 7.69893 13.9088C7.94194 14.2021 8.68967 14.9499 8.98293 15.1929C10.6197 16.5494 12.4321 17.3489 14.5062 17.6294C15.0144 17.6981 15.8291 17.7372 16.0309 17.7026C16.4167 17.6364 16.7183 17.3502 16.798 16.9748C16.815 16.8946 16.8236 16.4706 16.8236 15.7106C16.8236 14.492 16.8188 14.4298 16.7083 14.2131C16.6457 14.0904 16.4957 13.93 16.3803 13.8624C16.2068 13.7607 16.0959 13.7358 15.7197 13.7144C15.0124 13.674 14.5595 13.6015 13.9907 13.4377C13.7006 13.3542 13.6544 13.347 13.4648 13.3552C13.2815 13.3633 13.2391 13.3736 13.1063 13.4431C13.0235 13.4864 12.6486 13.7549 12.2731 14.0397C11.8976 14.3245 11.5831 14.5575 11.5741 14.5575C11.544 14.5575 11.1031 14.3006 10.8378 14.1285C9.8535 13.49 9.1041 12.6862 8.49283 11.6133C8.3545 11.3705 8.33053 11.3139 8.35177 11.2799C8.36583 11.2573 8.60501 10.9383 8.88327 10.5709C9.16152 10.2035 9.41265 9.86149 9.44133 9.81096C9.47001 9.76043 9.51015 9.65391 9.53057 9.57422C9.57743 9.39136 9.56375 9.27147 9.45 8.86719C9.29219 8.30633 9.21433 7.81239 9.18811 7.20562C9.17293 6.8543 9.1376 6.68363 9.04866 6.53186C8.92164 6.31508 8.66997 6.13673 8.42582 6.09041C8.24571 6.05624 6.03269 6.06382 5.88764 6.0991Z" fill="white"/>
</svg>
