<svg width="12" height="12" viewBox="0 0 12 12" fill="none" xmlns="http://www.w3.org/2000/svg">
<path fill-rule="evenodd" clip-rule="evenodd" d="M0.887642 0.0991032C0.526426 0.186939 0.25379 0.48502 0.188994 0.862902C0.154855 1.06204 0.194479 1.88063 0.262666 2.38515C0.543086 4.45934 1.34254 6.27191 2.69893 7.9088C2.94194 8.20208 3.68967 8.94988 3.98293 9.1929C5.6197 10.5494 7.43213 11.3489 9.50616 11.6294C10.0144 11.6981 10.8291 11.7372 11.0309 11.7026C11.4167 11.6364 11.7183 11.3502 11.798 10.9748C11.815 10.8946 11.8236 10.4706 11.8236 9.71061C11.8236 8.49197 11.8188 8.42976 11.7083 8.21312C11.6457 8.09042 11.4957 7.93002 11.3803 7.86242C11.2068 7.76067 11.0959 7.73584 10.7197 7.71435C10.0124 7.67398 9.5595 7.6015 8.99065 7.43771C8.70056 7.3542 8.65443 7.34696 8.4648 7.35525C8.28147 7.36328 8.23914 7.37364 8.10633 7.44311C8.02351 7.48642 7.64855 7.75489 7.27311 8.03968C6.89765 8.32449 6.58309 8.5575 6.57405 8.5575C6.54401 8.5575 6.10311 8.30059 5.83783 8.12852C4.8535 7.49002 4.1041 6.68623 3.49283 5.61333C3.3545 5.37054 3.33053 5.31389 3.35177 5.27988C3.36583 5.25735 3.60501 4.9383 3.88327 4.57087C4.16152 4.20346 4.41265 3.86149 4.44133 3.81096C4.47001 3.76043 4.51015 3.65391 4.53057 3.57422C4.57743 3.39136 4.56375 3.27147 4.45 2.86719C4.29219 2.30633 4.21433 1.81239 4.18811 1.20562C4.17293 0.854298 4.1376 0.683635 4.04866 0.531863C3.92164 0.315085 3.66997 0.136728 3.42582 0.0904085C3.24571 0.0562438 1.03269 0.0638233 0.887642 0.0991032Z" fill="white"/>
</svg>
