<svg width="22" height="23" viewBox="0 0 22 23" fill="none" xmlns="http://www.w3.org/2000/svg">
<circle cx="11" cy="11.3916" r="11" fill="#0B9CEF"/>
<path fill-rule="evenodd" clip-rule="evenodd" d="M10.605 3.89842C9.3617 4.02107 8.3187 4.50694 7.46407 5.36157C6.27544 6.55022 5.76534 8.24859 6.10151 9.89823C6.17477 10.2577 6.3049 10.6541 6.45674 10.9802C6.52018 11.1165 7.51251 12.9304 8.6619 15.0112C10.8499 18.972 10.8089 18.9039 11.0011 18.9039C11.1933 18.9039 11.1524 18.972 13.3413 15.0091C14.4912 12.9273 15.4835 11.1133 15.5465 10.9782C16.0922 9.80601 16.1488 8.38732 15.6981 7.17581C15.4355 6.46988 15.0615 5.88484 14.5382 5.36157C13.7775 4.60095 12.8934 4.14439 11.808 3.95177C11.5723 3.90995 10.8244 3.87677 10.605 3.89842ZM11.2505 6.40512C11.8801 6.47522 12.3905 6.72993 12.8257 7.19133C13.3009 7.69506 13.519 8.29202 13.4863 8.99938C13.4669 9.4189 13.4187 9.61303 13.2444 9.97457C12.9349 10.6166 12.3859 11.0824 11.6906 11.2932C11.4553 11.3645 11.3803 11.3732 11.0011 11.3732C10.6219 11.3732 10.5469 11.3645 10.3116 11.2932C9.80886 11.1408 9.38001 10.8547 9.06089 10.4587C8.87146 10.2237 8.65548 9.80606 8.58022 9.52946C8.50651 9.25849 8.48967 8.69426 8.54688 8.41202C8.76263 7.34713 9.6439 6.52988 10.7077 6.40806C10.8287 6.39421 10.941 6.38127 10.9571 6.3793C10.9732 6.37734 11.1053 6.38896 11.2505 6.40512Z" fill="white"/>
</svg>
