<svg width="147" height="149" viewBox="0 0 147 149" fill="none" xmlns="http://www.w3.org/2000/svg">
<mask id="path-1-inside-1_12_590" fill="white">
<path fill-rule="evenodd" clip-rule="evenodd" d="M136.547 0.156389C125.433 0.889482 113.451 3.72762 103.045 8.09177C96.3165 10.9134 88.9214 14.9833 83.5021 18.8474L81.045 20.5992L76.9979 20.9764C62.0716 22.368 49.2612 27.5286 38.4065 36.5234C35.0763 39.2826 18.2843 55.8677 17.7119 56.9624C17.4876 57.392 17.304 58.1684 17.304 58.6885C17.304 59.5467 18.3325 60.6632 28.4944 70.8377L39.685 82.0417L39.0387 82.843C30.7067 93.171 26.8091 101.677 24.8295 113.852C23.487 122.108 23.9386 122.625 31.5126 121.496C36.6125 120.737 39.3668 120.08 43.6433 118.607C49.4182 116.617 56.8728 112.486 61.3882 108.774C62.3421 107.99 63.3582 107.163 63.6459 106.937C64.1266 106.559 65.0791 107.435 75.3618 117.705L86.5547 128.884L87.8469 128.886L89.1391 128.888L98.695 119.274C103.951 113.987 109.128 108.555 110.2 107.204C119.069 96.0196 123.938 83.6663 125.232 69.0639L125.58 65.1421L126.779 63.5527C128.889 60.7574 132.591 54.6241 134.799 50.2654C141.787 36.4679 145.506 22.3177 146.133 7.13378C146.412 0.374929 146.082 -0.0803627 140.97 0.00896134C139.333 0.0375797 137.342 0.104067 136.547 0.156389ZM140.317 8.26782C138.794 29.0491 132.351 46.6549 120.579 62.1987C117.178 66.6909 114.974 69.1166 106.854 77.3063C100.594 83.6206 99.357 85.005 99.233 85.834C99.0486 87.0638 99.9221 88.5846 101.063 89.0214C102.769 89.6741 103.465 89.1462 111.35 81.2242C119.888 72.6453 119.272 72.7783 117.461 79.9037C115.21 88.7598 110.726 97.4094 104.656 104.602C103.381 106.112 99.0757 110.599 95.088 114.573L87.8374 121.798L83.5764 117.538L79.3157 113.277L83.2567 109.301C87.3925 105.128 87.8382 104.544 87.8382 103.291C87.8382 102.074 86.1414 100.555 84.7813 100.555C83.7634 100.555 83.4059 100.837 79.4646 104.746C77.1407 107.052 75.1291 108.938 74.9941 108.938C74.7128 108.938 37.2502 71.378 37.2502 71.0958C37.2502 70.7813 75.9882 32.2645 78.4433 30.138C95.6785 15.2097 116.959 6.72474 139.536 5.77889L140.502 5.73842L140.317 8.26782ZM102.003 26.2298C99.3677 27.0817 97.9058 27.9867 95.9271 29.9909C91.2409 34.7378 90.3674 41.7392 93.7423 47.4981C94.9015 49.4763 97.5405 51.8597 99.7941 52.9642C107.208 56.5976 115.685 53.5667 119.282 45.9967C120.253 43.9538 120.359 43.4861 120.459 40.8023C120.547 38.4186 120.453 37.4736 119.968 35.8759C118.565 31.2579 115.005 27.667 110.428 26.2523C108.059 25.5204 104.229 25.51 102.003 26.2298ZM52.8027 47.0038C42.0112 57.7753 33.0881 66.6216 32.973 66.6617C32.858 66.7022 30.8804 64.8481 28.5782 62.5419L24.3924 58.3485L31.1825 51.5244C42.0153 40.6378 46.4607 37.1255 54.3767 33.2002C58.5842 31.1137 64.875 28.9075 69.1929 28.0041C70.6238 27.7046 71.936 27.4505 72.1088 27.4392C72.282 27.4283 63.5941 36.232 52.8027 47.0038ZM110.017 32.2873C112.894 33.7671 114.46 36.2332 114.661 39.6015C114.775 41.5091 114.695 42.0242 114.078 43.3727C112.493 46.8356 109.772 48.6564 106.205 48.6414C103.87 48.6316 102.162 47.995 100.46 46.4999C95.5123 42.1563 97.0901 34.2021 103.362 31.8656C104.966 31.2683 108.467 31.49 110.017 32.2873ZM74.3963 54.8869C65.8191 56.6037 60.699 65.3583 63.4334 73.6313C66.8451 83.9539 80.1298 86.9042 87.5385 78.9844C91.7754 74.4549 92.7109 68.4283 90.0476 62.8205C87.2965 57.0272 80.6171 53.6415 74.3963 54.8869ZM80.8834 61.3766C83.986 62.9489 85.6167 65.5728 85.6497 69.0457C85.6667 70.8591 85.5381 71.4826 84.8637 72.8563C82.9433 76.7669 78.3875 78.658 74.2211 77.2742C72.025 76.5446 69.5603 74.0568 68.9296 71.9327C67.7652 68.0123 68.9909 64.2358 72.1276 62.0776C74.8175 60.2272 78.0967 59.9645 80.8834 61.3766ZM51.9739 94.3207C59.1216 101.472 59.8604 102.299 59.4933 102.742C59.2693 103.011 58.0716 104.005 56.8318 104.949C49.3231 110.664 41.3287 114.027 31.2608 115.703C30.3491 115.855 30.3338 115.839 30.4962 114.927C32.0746 106.076 34.6387 99.2563 38.7565 92.9583C40.6138 90.1172 43.4991 86.3902 43.8411 86.3902C43.9544 86.3902 47.6144 89.9588 51.9739 94.3207ZM24.0143 87.4063C22.7349 87.959 22.0593 89.5131 22.5076 90.872C23.1653 92.8646 25.6441 93.4156 27.1548 91.9049C29.3789 89.6805 26.916 86.1526 24.0143 87.4063ZM91.2849 93.0167C88.8942 95.4073 91.7121 99.104 94.7341 97.5413C97.343 96.1922 96.2922 92.1717 93.3307 92.1717C92.3889 92.1717 91.9477 92.3541 91.2849 93.0167ZM7.82814 103.244C0.811134 110.247 0.196273 110.941 0.0517352 112.02C-0.0841299 113.032 0.0129991 113.325 0.764593 114.166C1.48728 114.975 1.83764 115.14 2.83177 115.14C4.01293 115.14 4.13029 115.038 11.8226 107.33C19.2767 99.8619 19.6166 99.4734 19.6166 98.4258C19.6166 96.8287 18.3669 95.6406 16.6868 95.6406C15.4513 95.6406 15.4227 95.6652 7.82814 103.244ZM55.1049 129.105L44.477 139.733V140.98C44.477 142.668 45.6619 143.916 47.2643 143.916C48.3214 143.916 48.7478 143.53 58.9932 133.298C70.174 122.133 70.4507 121.791 69.619 120.17C69.0516 119.064 68.1222 118.491 66.8847 118.484C65.7526 118.477 65.5486 118.662 55.1049 129.105ZM30.391 136.479C23.1777 143.692 23.0855 143.799 23.0855 144.99C23.0855 146.643 23.9811 147.655 25.6401 147.878L26.8929 148.046L34.384 140.555C41.5551 133.384 41.8754 133.016 41.8754 131.963C41.8754 130.359 40.6283 129.173 38.941 129.173C37.7 129.173 37.6763 129.193 30.391 136.479Z"/>
</mask>
<path fill-rule="evenodd" clip-rule="evenodd" d="M136.547 0.156389C125.433 0.889482 113.451 3.72762 103.045 8.09177C96.3165 10.9134 88.9214 14.9833 83.5021 18.8474L81.045 20.5992L76.9979 20.9764C62.0716 22.368 49.2612 27.5286 38.4065 36.5234C35.0763 39.2826 18.2843 55.8677 17.7119 56.9624C17.4876 57.392 17.304 58.1684 17.304 58.6885C17.304 59.5467 18.3325 60.6632 28.4944 70.8377L39.685 82.0417L39.0387 82.843C30.7067 93.171 26.8091 101.677 24.8295 113.852C23.487 122.108 23.9386 122.625 31.5126 121.496C36.6125 120.737 39.3668 120.08 43.6433 118.607C49.4182 116.617 56.8728 112.486 61.3882 108.774C62.3421 107.99 63.3582 107.163 63.6459 106.937C64.1266 106.559 65.0791 107.435 75.3618 117.705L86.5547 128.884L87.8469 128.886L89.1391 128.888L98.695 119.274C103.951 113.987 109.128 108.555 110.2 107.204C119.069 96.0196 123.938 83.6663 125.232 69.0639L125.58 65.1421L126.779 63.5527C128.889 60.7574 132.591 54.6241 134.799 50.2654C141.787 36.4679 145.506 22.3177 146.133 7.13378C146.412 0.374929 146.082 -0.0803627 140.97 0.00896134C139.333 0.0375797 137.342 0.104067 136.547 0.156389ZM140.317 8.26782C138.794 29.0491 132.351 46.6549 120.579 62.1987C117.178 66.6909 114.974 69.1166 106.854 77.3063C100.594 83.6206 99.357 85.005 99.233 85.834C99.0486 87.0638 99.9221 88.5846 101.063 89.0214C102.769 89.6741 103.465 89.1462 111.35 81.2242C119.888 72.6453 119.272 72.7783 117.461 79.9037C115.21 88.7598 110.726 97.4094 104.656 104.602C103.381 106.112 99.0757 110.599 95.088 114.573L87.8374 121.798L83.5764 117.538L79.3157 113.277L83.2567 109.301C87.3925 105.128 87.8382 104.544 87.8382 103.291C87.8382 102.074 86.1414 100.555 84.7813 100.555C83.7634 100.555 83.4059 100.837 79.4646 104.746C77.1407 107.052 75.1291 108.938 74.9941 108.938C74.7128 108.938 37.2502 71.378 37.2502 71.0958C37.2502 70.7813 75.9882 32.2645 78.4433 30.138C95.6785 15.2097 116.959 6.72474 139.536 5.77889L140.502 5.73842L140.317 8.26782ZM102.003 26.2298C99.3677 27.0817 97.9058 27.9867 95.9271 29.9909C91.2409 34.7378 90.3674 41.7392 93.7423 47.4981C94.9015 49.4763 97.5405 51.8597 99.7941 52.9642C107.208 56.5976 115.685 53.5667 119.282 45.9967C120.253 43.9538 120.359 43.4861 120.459 40.8023C120.547 38.4186 120.453 37.4736 119.968 35.8759C118.565 31.2579 115.005 27.667 110.428 26.2523C108.059 25.5204 104.229 25.51 102.003 26.2298ZM52.8027 47.0038C42.0112 57.7753 33.0881 66.6216 32.973 66.6617C32.858 66.7022 30.8804 64.8481 28.5782 62.5419L24.3924 58.3485L31.1825 51.5244C42.0153 40.6378 46.4607 37.1255 54.3767 33.2002C58.5842 31.1137 64.875 28.9075 69.1929 28.0041C70.6238 27.7046 71.936 27.4505 72.1088 27.4392C72.282 27.4283 63.5941 36.232 52.8027 47.0038ZM110.017 32.2873C112.894 33.7671 114.46 36.2332 114.661 39.6015C114.775 41.5091 114.695 42.0242 114.078 43.3727C112.493 46.8356 109.772 48.6564 106.205 48.6414C103.87 48.6316 102.162 47.995 100.46 46.4999C95.5123 42.1563 97.0901 34.2021 103.362 31.8656C104.966 31.2683 108.467 31.49 110.017 32.2873ZM74.3963 54.8869C65.8191 56.6037 60.699 65.3583 63.4334 73.6313C66.8451 83.9539 80.1298 86.9042 87.5385 78.9844C91.7754 74.4549 92.7109 68.4283 90.0476 62.8205C87.2965 57.0272 80.6171 53.6415 74.3963 54.8869ZM80.8834 61.3766C83.986 62.9489 85.6167 65.5728 85.6497 69.0457C85.6667 70.8591 85.5381 71.4826 84.8637 72.8563C82.9433 76.7669 78.3875 78.658 74.2211 77.2742C72.025 76.5446 69.5603 74.0568 68.9296 71.9327C67.7652 68.0123 68.9909 64.2358 72.1276 62.0776C74.8175 60.2272 78.0967 59.9645 80.8834 61.3766ZM51.9739 94.3207C59.1216 101.472 59.8604 102.299 59.4933 102.742C59.2693 103.011 58.0716 104.005 56.8318 104.949C49.3231 110.664 41.3287 114.027 31.2608 115.703C30.3491 115.855 30.3338 115.839 30.4962 114.927C32.0746 106.076 34.6387 99.2563 38.7565 92.9583C40.6138 90.1172 43.4991 86.3902 43.8411 86.3902C43.9544 86.3902 47.6144 89.9588 51.9739 94.3207ZM24.0143 87.4063C22.7349 87.959 22.0593 89.5131 22.5076 90.872C23.1653 92.8646 25.6441 93.4156 27.1548 91.9049C29.3789 89.6805 26.916 86.1526 24.0143 87.4063ZM91.2849 93.0167C88.8942 95.4073 91.7121 99.104 94.7341 97.5413C97.343 96.1922 96.2922 92.1717 93.3307 92.1717C92.3889 92.1717 91.9477 92.3541 91.2849 93.0167ZM7.82814 103.244C0.811134 110.247 0.196273 110.941 0.0517352 112.02C-0.0841299 113.032 0.0129991 113.325 0.764593 114.166C1.48728 114.975 1.83764 115.14 2.83177 115.14C4.01293 115.14 4.13029 115.038 11.8226 107.33C19.2767 99.8619 19.6166 99.4734 19.6166 98.4258C19.6166 96.8287 18.3669 95.6406 16.6868 95.6406C15.4513 95.6406 15.4227 95.6652 7.82814 103.244ZM55.1049 129.105L44.477 139.733V140.98C44.477 142.668 45.6619 143.916 47.2643 143.916C48.3214 143.916 48.7478 143.53 58.9932 133.298C70.174 122.133 70.4507 121.791 69.619 120.17C69.0516 119.064 68.1222 118.491 66.8847 118.484C65.7526 118.477 65.5486 118.662 55.1049 129.105ZM30.391 136.479C23.1777 143.692 23.0855 143.799 23.0855 144.99C23.0855 146.643 23.9811 147.655 25.6401 147.878L26.8929 148.046L34.384 140.555C41.5551 133.384 41.8754 133.016 41.8754 131.963C41.8754 130.359 40.6283 129.173 38.941 129.173C37.7 129.173 37.6763 129.193 30.391 136.479Z" fill="#0B9CEF" stroke="#0B9CEF" stroke-width="2" mask="url(#path-1-inside-1_12_590)"/>
</svg>
