<svg width="170" height="148" viewBox="0 0 170 148" fill="none" xmlns="http://www.w3.org/2000/svg">
<mask id="path-1-inside-1_59_816" fill="white">
<path fill-rule="evenodd" clip-rule="evenodd" d="M87.9607 0.312249C85.6721 0.768635 82.563 1.96948 80.5276 3.18325C78.0665 4.65123 74.3474 8.38577 72.8712 10.8706C67.8438 19.3341 68.9667 30.1596 75.6274 37.445C77.6986 39.7105 77.7512 39.8128 76.953 40.0223C76.4959 40.1421 74.8668 40.8639 73.3332 41.6258C68.0553 44.2485 63.0502 50.3244 60.0522 57.7477C59.3543 59.4762 58.7432 60.9375 58.6948 60.9948C58.646 61.0524 58.0203 60.7011 57.3047 60.2144C56.5887 59.7272 55.4338 59.1706 54.7381 58.9768C52.6867 58.4056 21.7425 58.5358 20.1023 59.1225C15.9027 60.624 13.7886 64.0984 15.8299 66.1439C16.9674 67.2843 18.484 67.2717 19.5543 66.1128C20.9653 64.5848 22.0558 64.2076 25.0607 64.2076H27.8653V68.9374C27.8653 73.4939 27.8967 73.6989 28.7206 74.5243L29.5756 75.3816H37.6205H45.6654L46.5204 74.5243C47.345 73.6982 47.3757 73.496 47.3757 68.9038V64.1403L50.6764 64.2611C53.5559 64.3669 54.0782 64.4839 54.7701 65.1777L55.5631 65.9731V78.1751V90.377L54.7698 91.1725L53.9764 91.9679L37.7686 92.0653L21.5607 92.1628L20.5322 91.132C19.9664 90.5649 19.5037 89.9318 19.5037 89.7251C19.5037 89.4828 20.6862 89.349 22.8292 89.349C25.8958 89.349 26.2216 89.2823 27.01 88.4918C27.5493 87.9516 27.8653 87.2357 27.8653 86.5555C27.8653 85.8753 27.5493 85.1595 27.01 84.6193C26.2216 83.8287 25.8958 83.762 22.8292 83.762H19.5037V80.9686V78.1751H21.4356C23.7605 78.1751 25.0781 77.1645 25.0781 75.3816C25.0781 74.7014 24.7621 73.9855 24.2228 73.4454L23.3678 72.5881H15.3229H7.27806L6.42309 73.4454C5.29149 74.5792 5.29149 76.184 6.42309 77.3178C7.21152 78.1084 7.53727 78.1751 10.6039 78.1751H13.9293V80.9686V83.762H7.81669C1.79077 83.762 1.69148 83.7743 0.8487 84.6193C-0.2829 85.7531 -0.2829 87.358 0.8487 88.4918C1.69078 89.3361 1.7953 89.349 7.74422 89.349H13.7848L14.2067 90.9294C15.0219 93.9845 17.1684 96.287 20.1653 97.3209C20.929 97.5842 24.0625 97.7295 28.9896 97.7295H36.6297L35.3594 99.2135C31.7792 103.397 28.4931 113.832 27.9932 122.605C27.7643 126.624 27.7671 126.645 28.6694 127.55C29.5575 128.44 29.6714 128.458 34.3821 128.46L39.1883 128.463L39.7628 130.852C41.6651 138.762 47.9199 145.073 55.9115 147.148C58.6105 147.848 64.0128 147.848 66.7118 147.148C74.6571 145.085 80.9607 138.746 82.8427 130.924L83.435 128.463L104.531 128.46L125.626 128.458L126.072 130.622C128.095 140.44 137.511 148 147.715 148C159.875 148 170 137.852 170 125.664C170 117.385 165.105 109.415 157.806 105.809C154.731 104.289 151.107 103.333 148.384 103.322L146.788 103.316L141.843 91.7427C139.124 85.377 136.942 80.126 136.994 80.0736C137.047 80.0212 137.947 80.201 138.994 80.4734C141.804 81.2039 143.073 81.1135 144.072 80.1113L144.927 79.2544V67.0011V54.7479L144.025 53.8431C143.182 52.9984 142.972 52.9527 140.837 53.1524C136.327 53.5746 131.613 56.8021 129.81 60.7025L129.008 62.4373L127.997 61.3695C127.44 60.7821 126.201 59.884 125.243 59.3739C123.543 58.4684 123.368 58.4482 117.997 58.5358C111.505 58.6416 110.07 58.2282 107.561 55.5276C106.057 53.9088 102.771 49.4727 102.771 49.061C102.771 48.9412 103.135 48.8435 103.58 48.8435C104.024 48.8435 105.238 48.4112 106.277 47.8832C108.431 46.7885 110.198 44.6868 110.839 42.4565C111.094 41.5678 111.722 40.5936 112.427 39.9927C115.19 37.6353 115.604 34.7025 113.618 31.571C113.013 30.6174 112.364 29.2817 112.175 28.6029C111.726 26.9799 111.735 25.0988 112.194 25.0988C112.394 25.0988 112.943 24.713 113.413 24.2416C114.438 23.2143 114.531 21.3542 113.746 17.5914C111.629 7.451 102.163 -0.135058 91.7966 0.00182316C90.4552 0.0196316 88.7289 0.159306 87.9607 0.312249ZM95.9627 6.07905C99.0179 6.87659 101.814 8.52475 103.989 10.8105C105.902 12.8208 107.763 16.1496 108.2 18.3449L108.42 19.4476L103.07 19.5723C98.5043 19.6784 97.4804 19.8066 96.0902 20.4459C93.7877 21.5057 91.451 23.795 90.3228 26.0968C89.4181 27.944 89.3505 28.4014 89.2386 33.4294L89.1195 38.7915L88.0192 38.5715C85.8288 38.1329 82.5076 36.2682 80.5018 34.3509C78.2212 32.1706 76.5768 29.3683 75.781 26.3063C72.7081 14.4826 84.1656 2.99923 95.9627 6.07905ZM106.202 27.6716C106.445 29.1225 107.17 31.3674 107.865 32.8197L109.096 35.3946L108.285 35.9212C106.774 36.902 105.907 37.9838 105.907 38.8871C105.907 40.2713 105.017 42.0906 104.021 42.7449C102.973 43.4332 99.6059 43.3019 96.6742 42.4586L94.9322 41.9575L94.8374 35.8677C94.7472 30.0709 94.7813 29.7036 95.5523 28.2422C96.7909 25.8953 98.5726 25.0988 102.584 25.0988H105.771L106.202 27.6716ZM87.4555 45.0052C92.038 45.8761 94.8862 48.0843 99.5554 54.3871C103.096 59.1665 105.319 61.3583 107.945 62.6608C109.028 63.1978 109.964 63.6716 110.025 63.7139C110.086 63.7561 109.81 64.4315 109.412 65.2143C109.013 65.9976 108.501 67.8332 108.275 69.2942C107.873 71.8866 107.841 71.946 106.963 71.7696C101.749 70.7245 95.7659 66.3345 92.1843 60.9267C90.3256 58.1199 89.0606 57.6185 87.3144 58.9953C85.6376 60.3174 86.0936 62.1209 89.116 66.1184L90.1647 67.5054L89.1982 68.7373C87.7064 70.6382 86.0257 73.813 85.3474 76.0101L84.7331 78.0005L72.9705 78.0923L61.2075 78.1845L61.4252 75.2988C61.7182 71.4131 63.039 65.8268 64.7242 61.344C69.4175 48.8616 77.4335 43.1001 87.4555 45.0052ZM139.353 67.0011C139.353 75.8855 139.387 75.817 136.444 72.85C134.575 70.9651 133.779 69.2181 133.779 67.0011C133.779 64.7842 134.575 63.0372 136.444 61.1523C139.387 58.1852 139.353 58.1168 139.353 67.0011ZM123.543 64.8117C124.172 65.2608 124.95 66.403 125.506 67.695L126.427 69.8344L124.86 70.5077C122.238 71.6345 119.107 72.3192 116.359 72.3674L113.746 72.4135L113.63 71.3942C113.345 68.892 115.185 65.6194 117.578 64.369C119.038 63.6064 122.181 63.8396 123.543 64.8117ZM41.8013 67.0011V69.7946H37.6205H33.4397V67.0011V64.2076H37.6205H41.8013V67.0011ZM96.9783 73.4118C99.7679 75.2492 102.363 76.359 106.081 77.3042L109.217 78.1014L113.115 94.9866C115.492 105.28 117.022 112.638 117.035 113.835C117.06 116.212 116.302 118.512 115.069 119.802L114.155 120.758L113.578 119.05C112.574 116.075 110.118 113.501 107.388 112.562L106.081 112.112L105.889 102.389C105.683 91.9948 105.682 91.9875 103.631 87.9296C101.626 83.9649 96.2543 79.7824 92.2042 79.0323C91.4705 78.8965 90.7897 78.5756 90.6918 78.3196C90.2615 77.1956 93.7441 71.2933 94.535 71.8066C94.7534 71.9484 95.853 72.6709 96.9783 73.4118ZM135.272 90.655L141.719 105.753L135.652 114.312L129.585 122.871H124.777H119.97L121.12 120.514C122.515 117.654 123.089 114.337 122.65 111.687C122.381 110.065 115.592 80.4717 115.114 78.8371C114.977 78.3685 115.406 78.2386 117.73 78.0445C120.518 77.8112 125.746 76.4833 127.462 75.5719C127.966 75.3041 128.479 75.1909 128.602 75.3205C128.724 75.45 131.726 82.3506 135.272 90.655ZM89.1975 84.114C93.2846 84.8906 97.1699 87.5818 98.7524 90.7318C100.065 93.3444 100.332 95.5649 100.332 103.857V111.697H94.758H89.1836V107.689C89.1836 101.435 87.5472 97.5888 83.6942 94.7844C80.4976 92.4578 78.7644 92.1425 69.1677 92.1425H60.6636L60.9876 91.0101C61.1657 90.3871 61.3116 88.5015 61.3116 86.8199V83.762H74.3292C81.6164 83.762 88.1614 83.9171 89.1975 84.114ZM78.0843 98.1349C79.8176 98.6552 81.9456 100.485 82.7772 102.17C83.3287 103.287 83.4566 104.597 83.6064 110.672L83.7834 117.852L85.0261 120.362L86.2692 122.871H59.8201H33.3714L33.6042 120.688C34.2159 114.953 36.9279 106.689 39.3604 103.145C41 100.757 43.8739 98.8071 46.8531 98.0623C48.655 97.6118 76.5586 97.6768 78.0843 98.1349ZM151.707 109.438C160.655 111.774 166.175 120.928 163.904 129.665C162.228 136.117 156.873 141.055 150.337 142.177C143.452 143.359 135.985 139.513 132.894 133.193C132.231 131.837 131.591 130.217 131.471 129.593L131.253 128.458H134.058H136.863L137.715 130.321C138.804 132.706 140.695 134.592 143.155 135.749C145.834 137.008 149.847 137.02 152.418 135.777C154.627 134.709 156.743 132.597 157.836 130.369C159.005 127.99 159.049 123.496 157.93 121.056C156.974 118.975 154.622 116.607 152.474 115.565C149.187 113.97 144.498 114.305 141.649 116.338C141.037 116.775 140.74 116.867 140.916 116.567C141.366 115.794 145.324 110.206 145.911 109.514C146.569 108.738 148.907 108.707 151.707 109.438ZM105.912 117.924C107.282 118.647 108.946 121.359 108.59 122.289C108.394 122.801 107.648 122.871 102.387 122.871C95.6485 122.871 94.3503 122.612 92.3073 120.859C91.1074 119.83 89.8804 118.119 89.8804 117.476C89.8804 117.37 93.2146 117.284 97.2894 117.284C103.802 117.284 104.845 117.361 105.912 117.924ZM150.768 121.01C152.543 122.339 153.115 123.473 153.115 125.664C153.115 127.873 152.544 128.989 150.716 130.357C149.197 131.494 146.124 131.367 144.465 130.099C143.761 129.561 143.185 128.971 143.185 128.789C143.185 128.607 144.447 128.458 145.988 128.458C148.5 128.458 148.88 128.369 149.647 127.601C150.778 126.467 150.778 124.862 149.647 123.728C148.88 122.96 148.5 122.871 145.988 122.871C144.447 122.871 143.185 122.738 143.185 122.576C143.185 122.168 144.204 121.283 145.451 120.607C146.796 119.879 149.533 120.086 150.768 121.01ZM136.957 122.615C136.613 122.957 136.574 122.917 136.762 122.419C136.893 122.075 137.088 121.881 137.195 121.989C137.303 122.096 137.196 122.378 136.957 122.615ZM51.2443 130.211C52.8239 133.891 57.119 136.629 61.3116 136.629C65.5043 136.629 69.7993 133.891 71.379 130.211L72.1315 128.458H74.9525H77.7735L77.5474 129.593C77.0987 131.844 75.2539 135.138 73.2778 137.214C66.778 144.044 55.8453 144.044 49.3455 137.214C47.3694 135.138 45.5246 131.844 45.0759 129.593L44.8498 128.458H47.6708H50.4918L51.2443 130.211ZM65.8408 128.782C65.8408 129.327 64.08 130.531 62.6582 130.958C61.6381 131.264 60.9852 131.264 59.9651 130.958C58.5433 130.531 56.7825 129.327 56.7825 128.782C56.7825 128.599 58.7607 128.458 61.3116 128.458C63.8626 128.458 65.8408 128.599 65.8408 128.782Z"/>
</mask>
<path fill-rule="evenodd" clip-rule="evenodd" d="M87.9607 0.312249C85.6721 0.768635 82.563 1.96948 80.5276 3.18325C78.0665 4.65123 74.3474 8.38577 72.8712 10.8706C67.8438 19.3341 68.9667 30.1596 75.6274 37.445C77.6986 39.7105 77.7512 39.8128 76.953 40.0223C76.4959 40.1421 74.8668 40.8639 73.3332 41.6258C68.0553 44.2485 63.0502 50.3244 60.0522 57.7477C59.3543 59.4762 58.7432 60.9375 58.6948 60.9948C58.646 61.0524 58.0203 60.7011 57.3047 60.2144C56.5887 59.7272 55.4338 59.1706 54.7381 58.9768C52.6867 58.4056 21.7425 58.5358 20.1023 59.1225C15.9027 60.624 13.7886 64.0984 15.8299 66.1439C16.9674 67.2843 18.484 67.2717 19.5543 66.1128C20.9653 64.5848 22.0558 64.2076 25.0607 64.2076H27.8653V68.9374C27.8653 73.4939 27.8967 73.6989 28.7206 74.5243L29.5756 75.3816H37.6205H45.6654L46.5204 74.5243C47.345 73.6982 47.3757 73.496 47.3757 68.9038V64.1403L50.6764 64.2611C53.5559 64.3669 54.0782 64.4839 54.7701 65.1777L55.5631 65.9731V78.1751V90.377L54.7698 91.1725L53.9764 91.9679L37.7686 92.0653L21.5607 92.1628L20.5322 91.132C19.9664 90.5649 19.5037 89.9318 19.5037 89.7251C19.5037 89.4828 20.6862 89.349 22.8292 89.349C25.8958 89.349 26.2216 89.2823 27.01 88.4918C27.5493 87.9516 27.8653 87.2357 27.8653 86.5555C27.8653 85.8753 27.5493 85.1595 27.01 84.6193C26.2216 83.8287 25.8958 83.762 22.8292 83.762H19.5037V80.9686V78.1751H21.4356C23.7605 78.1751 25.0781 77.1645 25.0781 75.3816C25.0781 74.7014 24.7621 73.9855 24.2228 73.4454L23.3678 72.5881H15.3229H7.27806L6.42309 73.4454C5.29149 74.5792 5.29149 76.184 6.42309 77.3178C7.21152 78.1084 7.53727 78.1751 10.6039 78.1751H13.9293V80.9686V83.762H7.81669C1.79077 83.762 1.69148 83.7743 0.8487 84.6193C-0.2829 85.7531 -0.2829 87.358 0.8487 88.4918C1.69078 89.3361 1.7953 89.349 7.74422 89.349H13.7848L14.2067 90.9294C15.0219 93.9845 17.1684 96.287 20.1653 97.3209C20.929 97.5842 24.0625 97.7295 28.9896 97.7295H36.6297L35.3594 99.2135C31.7792 103.397 28.4931 113.832 27.9932 122.605C27.7643 126.624 27.7671 126.645 28.6694 127.55C29.5575 128.44 29.6714 128.458 34.3821 128.46L39.1883 128.463L39.7628 130.852C41.6651 138.762 47.9199 145.073 55.9115 147.148C58.6105 147.848 64.0128 147.848 66.7118 147.148C74.6571 145.085 80.9607 138.746 82.8427 130.924L83.435 128.463L104.531 128.46L125.626 128.458L126.072 130.622C128.095 140.44 137.511 148 147.715 148C159.875 148 170 137.852 170 125.664C170 117.385 165.105 109.415 157.806 105.809C154.731 104.289 151.107 103.333 148.384 103.322L146.788 103.316L141.843 91.7427C139.124 85.377 136.942 80.126 136.994 80.0736C137.047 80.0212 137.947 80.201 138.994 80.4734C141.804 81.2039 143.073 81.1135 144.072 80.1113L144.927 79.2544V67.0011V54.7479L144.025 53.8431C143.182 52.9984 142.972 52.9527 140.837 53.1524C136.327 53.5746 131.613 56.8021 129.81 60.7025L129.008 62.4373L127.997 61.3695C127.44 60.7821 126.201 59.884 125.243 59.3739C123.543 58.4684 123.368 58.4482 117.997 58.5358C111.505 58.6416 110.07 58.2282 107.561 55.5276C106.057 53.9088 102.771 49.4727 102.771 49.061C102.771 48.9412 103.135 48.8435 103.58 48.8435C104.024 48.8435 105.238 48.4112 106.277 47.8832C108.431 46.7885 110.198 44.6868 110.839 42.4565C111.094 41.5678 111.722 40.5936 112.427 39.9927C115.19 37.6353 115.604 34.7025 113.618 31.571C113.013 30.6174 112.364 29.2817 112.175 28.6029C111.726 26.9799 111.735 25.0988 112.194 25.0988C112.394 25.0988 112.943 24.713 113.413 24.2416C114.438 23.2143 114.531 21.3542 113.746 17.5914C111.629 7.451 102.163 -0.135058 91.7966 0.00182316C90.4552 0.0196316 88.7289 0.159306 87.9607 0.312249ZM95.9627 6.07905C99.0179 6.87659 101.814 8.52475 103.989 10.8105C105.902 12.8208 107.763 16.1496 108.2 18.3449L108.42 19.4476L103.07 19.5723C98.5043 19.6784 97.4804 19.8066 96.0902 20.4459C93.7877 21.5057 91.451 23.795 90.3228 26.0968C89.4181 27.944 89.3505 28.4014 89.2386 33.4294L89.1195 38.7915L88.0192 38.5715C85.8288 38.1329 82.5076 36.2682 80.5018 34.3509C78.2212 32.1706 76.5768 29.3683 75.781 26.3063C72.7081 14.4826 84.1656 2.99923 95.9627 6.07905ZM106.202 27.6716C106.445 29.1225 107.17 31.3674 107.865 32.8197L109.096 35.3946L108.285 35.9212C106.774 36.902 105.907 37.9838 105.907 38.8871C105.907 40.2713 105.017 42.0906 104.021 42.7449C102.973 43.4332 99.6059 43.3019 96.6742 42.4586L94.9322 41.9575L94.8374 35.8677C94.7472 30.0709 94.7813 29.7036 95.5523 28.2422C96.7909 25.8953 98.5726 25.0988 102.584 25.0988H105.771L106.202 27.6716ZM87.4555 45.0052C92.038 45.8761 94.8862 48.0843 99.5554 54.3871C103.096 59.1665 105.319 61.3583 107.945 62.6608C109.028 63.1978 109.964 63.6716 110.025 63.7139C110.086 63.7561 109.81 64.4315 109.412 65.2143C109.013 65.9976 108.501 67.8332 108.275 69.2942C107.873 71.8866 107.841 71.946 106.963 71.7696C101.749 70.7245 95.7659 66.3345 92.1843 60.9267C90.3256 58.1199 89.0606 57.6185 87.3144 58.9953C85.6376 60.3174 86.0936 62.1209 89.116 66.1184L90.1647 67.5054L89.1982 68.7373C87.7064 70.6382 86.0257 73.813 85.3474 76.0101L84.7331 78.0005L72.9705 78.0923L61.2075 78.1845L61.4252 75.2988C61.7182 71.4131 63.039 65.8268 64.7242 61.344C69.4175 48.8616 77.4335 43.1001 87.4555 45.0052ZM139.353 67.0011C139.353 75.8855 139.387 75.817 136.444 72.85C134.575 70.9651 133.779 69.2181 133.779 67.0011C133.779 64.7842 134.575 63.0372 136.444 61.1523C139.387 58.1852 139.353 58.1168 139.353 67.0011ZM123.543 64.8117C124.172 65.2608 124.95 66.403 125.506 67.695L126.427 69.8344L124.86 70.5077C122.238 71.6345 119.107 72.3192 116.359 72.3674L113.746 72.4135L113.63 71.3942C113.345 68.892 115.185 65.6194 117.578 64.369C119.038 63.6064 122.181 63.8396 123.543 64.8117ZM41.8013 67.0011V69.7946H37.6205H33.4397V67.0011V64.2076H37.6205H41.8013V67.0011ZM96.9783 73.4118C99.7679 75.2492 102.363 76.359 106.081 77.3042L109.217 78.1014L113.115 94.9866C115.492 105.28 117.022 112.638 117.035 113.835C117.06 116.212 116.302 118.512 115.069 119.802L114.155 120.758L113.578 119.05C112.574 116.075 110.118 113.501 107.388 112.562L106.081 112.112L105.889 102.389C105.683 91.9948 105.682 91.9875 103.631 87.9296C101.626 83.9649 96.2543 79.7824 92.2042 79.0323C91.4705 78.8965 90.7897 78.5756 90.6918 78.3196C90.2615 77.1956 93.7441 71.2933 94.535 71.8066C94.7534 71.9484 95.853 72.6709 96.9783 73.4118ZM135.272 90.655L141.719 105.753L135.652 114.312L129.585 122.871H124.777H119.97L121.12 120.514C122.515 117.654 123.089 114.337 122.65 111.687C122.381 110.065 115.592 80.4717 115.114 78.8371C114.977 78.3685 115.406 78.2386 117.73 78.0445C120.518 77.8112 125.746 76.4833 127.462 75.5719C127.966 75.3041 128.479 75.1909 128.602 75.3205C128.724 75.45 131.726 82.3506 135.272 90.655ZM89.1975 84.114C93.2846 84.8906 97.1699 87.5818 98.7524 90.7318C100.065 93.3444 100.332 95.5649 100.332 103.857V111.697H94.758H89.1836V107.689C89.1836 101.435 87.5472 97.5888 83.6942 94.7844C80.4976 92.4578 78.7644 92.1425 69.1677 92.1425H60.6636L60.9876 91.0101C61.1657 90.3871 61.3116 88.5015 61.3116 86.8199V83.762H74.3292C81.6164 83.762 88.1614 83.9171 89.1975 84.114ZM78.0843 98.1349C79.8176 98.6552 81.9456 100.485 82.7772 102.17C83.3287 103.287 83.4566 104.597 83.6064 110.672L83.7834 117.852L85.0261 120.362L86.2692 122.871H59.8201H33.3714L33.6042 120.688C34.2159 114.953 36.9279 106.689 39.3604 103.145C41 100.757 43.8739 98.8071 46.8531 98.0623C48.655 97.6118 76.5586 97.6768 78.0843 98.1349ZM151.707 109.438C160.655 111.774 166.175 120.928 163.904 129.665C162.228 136.117 156.873 141.055 150.337 142.177C143.452 143.359 135.985 139.513 132.894 133.193C132.231 131.837 131.591 130.217 131.471 129.593L131.253 128.458H134.058H136.863L137.715 130.321C138.804 132.706 140.695 134.592 143.155 135.749C145.834 137.008 149.847 137.02 152.418 135.777C154.627 134.709 156.743 132.597 157.836 130.369C159.005 127.99 159.049 123.496 157.93 121.056C156.974 118.975 154.622 116.607 152.474 115.565C149.187 113.97 144.498 114.305 141.649 116.338C141.037 116.775 140.74 116.867 140.916 116.567C141.366 115.794 145.324 110.206 145.911 109.514C146.569 108.738 148.907 108.707 151.707 109.438ZM105.912 117.924C107.282 118.647 108.946 121.359 108.59 122.289C108.394 122.801 107.648 122.871 102.387 122.871C95.6485 122.871 94.3503 122.612 92.3073 120.859C91.1074 119.83 89.8804 118.119 89.8804 117.476C89.8804 117.37 93.2146 117.284 97.2894 117.284C103.802 117.284 104.845 117.361 105.912 117.924ZM150.768 121.01C152.543 122.339 153.115 123.473 153.115 125.664C153.115 127.873 152.544 128.989 150.716 130.357C149.197 131.494 146.124 131.367 144.465 130.099C143.761 129.561 143.185 128.971 143.185 128.789C143.185 128.607 144.447 128.458 145.988 128.458C148.5 128.458 148.88 128.369 149.647 127.601C150.778 126.467 150.778 124.862 149.647 123.728C148.88 122.96 148.5 122.871 145.988 122.871C144.447 122.871 143.185 122.738 143.185 122.576C143.185 122.168 144.204 121.283 145.451 120.607C146.796 119.879 149.533 120.086 150.768 121.01ZM136.957 122.615C136.613 122.957 136.574 122.917 136.762 122.419C136.893 122.075 137.088 121.881 137.195 121.989C137.303 122.096 137.196 122.378 136.957 122.615ZM51.2443 130.211C52.8239 133.891 57.119 136.629 61.3116 136.629C65.5043 136.629 69.7993 133.891 71.379 130.211L72.1315 128.458H74.9525H77.7735L77.5474 129.593C77.0987 131.844 75.2539 135.138 73.2778 137.214C66.778 144.044 55.8453 144.044 49.3455 137.214C47.3694 135.138 45.5246 131.844 45.0759 129.593L44.8498 128.458H47.6708H50.4918L51.2443 130.211ZM65.8408 128.782C65.8408 129.327 64.08 130.531 62.6582 130.958C61.6381 131.264 60.9852 131.264 59.9651 130.958C58.5433 130.531 56.7825 129.327 56.7825 128.782C56.7825 128.599 58.7607 128.458 61.3116 128.458C63.8626 128.458 65.8408 128.599 65.8408 128.782Z" fill="#0B9CEF" stroke="white" mask="url(#path-1-inside-1_59_816)"/>
</svg>
