<svg width="148" height="148" viewBox="0 0 148 148" fill="none" xmlns="http://www.w3.org/2000/svg">
<mask id="path-1-inside-1_14_605" fill="white">
<path fill-rule="evenodd" clip-rule="evenodd" d="M4.65498 0.56939C2.99458 1.21708 1.50872 2.54833 0.625836 4.17971L0 5.33631V74.0093V142.682L0.625836 143.839C1.3637 145.202 2.78297 146.597 4.19733 147.349C5.17285 147.867 7.10478 147.89 56.1455 147.962C112.171 148.045 108.516 148.157 110.778 146.295C111.356 145.819 112.166 144.754 112.578 143.927L113.328 142.424V128.652V114.88L112.658 114.251C111.703 113.356 110.156 113.409 109.253 114.369L108.552 115.114L108.48 128.031C108.44 135.135 108.341 141.238 108.258 141.593C107.887 143.199 110.71 143.116 56.439 143.116H6.46852L5.6224 142.271L4.77627 141.426V74.0477V6.66986L5.47477 5.85851L6.17355 5.04716L56.2046 4.97111C91.494 4.91762 106.459 4.98701 106.993 5.20706C107.41 5.37852 107.899 5.80328 108.08 6.15055C108.316 6.60394 108.429 13.5285 108.48 30.686L108.552 54.59L109.253 55.336C110.186 56.3269 111.805 56.3631 112.699 55.4129L113.328 54.7435V30.169V5.59452L112.566 4.06694C111.687 2.30515 109.79 0.765722 107.917 0.293252C107.085 0.0833296 90.8748 -0.0086199 56.391 0.000632883C7.47617 0.0136446 6.03923 0.0295478 4.65498 0.56939ZM23.6952 15.0205C22.2705 15.5947 22.1445 16.1878 22.1445 22.329C22.1445 28.029 22.1486 28.0646 22.8552 28.7704L23.5655 29.4803H56.6726H89.7797L90.3662 28.8297C91.2364 27.8639 91.3669 27.2414 90.9223 26.1779C90.6519 25.5317 90.2163 25.1147 89.5791 24.8929C88.8986 24.6561 80.0744 24.5647 57.8511 24.5647H27.0655V22.107V19.6492H58.4228H89.7797L90.3662 18.9986C91.2364 18.0329 91.3669 17.4103 90.9223 16.3468C90.6519 15.7006 90.2163 15.2836 89.5791 15.0618C88.4366 14.664 24.6789 14.6238 23.6952 15.0205ZM137.509 30.3639C135.956 31.1383 134.849 32.2324 133.854 33.9768C133.075 35.3436 132.958 35.4301 132.037 35.3225C131.495 35.2595 130.793 35.346 130.476 35.5151C130.16 35.6843 128.589 38.0712 126.986 40.8198C122.998 47.6545 123.582 47.073 121.656 46.1318C120.132 45.387 120.001 45.3696 119.016 45.7805C118.299 46.0798 117.914 46.4635 117.766 47.027C117.332 48.6807 117.696 49.3758 119.622 50.5737L120.851 51.3376L110.409 69.3962L99.9659 87.4547L97.3711 94.3631C95.944 98.1628 94.0005 102.752 93.0522 104.562C91.5001 107.525 91.3281 108.027 91.3281 109.6C91.3281 110.736 91.5415 111.842 91.9383 112.764L92.5485 114.181L90.009 117.299C88.612 119.014 87.3786 120.524 87.2674 120.653C87.1565 120.782 86.6436 119.841 86.1278 118.563C84.6709 114.953 82.668 113.517 79.8309 114.049C78.7784 114.246 76.8447 115.894 76.1112 117.219C75.8727 117.65 75.6947 116.542 75.3314 112.363C74.808 106.345 74.5411 105.56 72.5606 104.216C70.694 102.949 67.8888 103.391 66.3728 105.191C65.2876 106.479 59.0194 125.311 59.3016 126.434C59.5564 127.448 61.1071 128.44 62.0915 128.22C62.4896 128.131 63.0757 127.768 63.3942 127.414C63.7242 127.046 65.2135 122.949 66.8586 117.883C68.4454 112.995 69.8227 108.996 69.9188 108.996C70.0149 108.996 70.2601 111.176 70.4636 113.84C70.6709 116.552 71.018 119.126 71.2527 119.691C72.8312 123.488 77.481 124.009 79.8489 120.653C80.3331 119.967 80.8137 119.406 80.9173 119.406C81.0206 119.406 81.4655 120.323 81.9061 121.445C82.9065 123.992 83.7547 125.012 85.3896 125.636C86.9012 126.213 88.412 126.033 89.7716 125.115C90.2687 124.78 92.0191 122.798 93.6615 120.712L96.6474 116.919L98.3041 117.039C99.6212 117.134 100.279 117.013 101.509 116.451C103.44 115.568 104.202 114.764 106.463 111.228C107.453 109.68 110.229 106.04 112.634 103.139L117.006 97.8641L127.501 79.6477C133.274 69.6287 138.035 61.3896 138.081 61.3387C138.281 61.121 140.539 62.4919 140.953 63.082C141.892 64.4211 141.583 65.1688 136.31 74.2984C133.508 79.1489 131.148 83.5344 131.065 84.0439C130.941 84.8067 131.076 85.1314 131.83 85.8849C132.596 86.6494 132.894 86.77 133.647 86.6194C134.143 86.5202 134.718 86.2996 134.923 86.1287C135.506 85.6455 145.748 67.7897 146.055 66.7221C147.013 63.3868 145.647 60.2035 142.357 58.102L140.557 56.9523L143.732 51.4655C147.108 45.6301 147.469 44.5357 146.348 43.5222C145.799 43.0258 145.806 42.9856 146.792 41.194C148.036 38.9329 148.298 37.0791 147.675 34.9501C146.733 31.7348 144.012 29.7599 140.554 29.781C139.263 29.7888 138.29 29.975 137.509 30.3639ZM30.3432 35.3355C29.4696 36.3054 29.3428 36.9244 29.7958 38.0082C30.1076 38.7533 30.4683 39.0621 31.3127 39.3079C32.1 39.5369 39.6546 39.6048 57.4128 39.543L82.4049 39.4559L83.1034 38.6446C84.0161 37.5845 84.0115 36.3137 83.0912 35.3948L82.3809 34.685H56.6553H30.9297L30.3432 35.3355ZM142.268 35.256C143.192 36.1793 143.274 37.1248 142.557 38.6041C142.202 39.3368 141.751 39.9975 141.555 40.0727C141.287 40.1753 138.139 38.5937 137.391 37.9798C137.187 37.8124 138.814 35.2847 139.313 34.9941C140.152 34.506 141.65 34.6387 142.268 35.256ZM136.885 43.4011C139.133 44.6965 141.021 45.797 141.081 45.847C141.167 45.9187 136.684 53.8741 136.312 54.3113C136.24 54.3963 128.282 49.924 127.84 49.5501C127.723 49.4512 132.51 41.0578 132.688 41.0506C132.748 41.0483 134.637 42.106 136.885 43.4011ZM40.9865 52.0576C39.9838 52.4613 39.5325 53.1827 39.5221 54.3983C39.5151 55.2091 39.694 55.604 40.2756 56.0609C41.0351 56.658 41.1492 56.6603 69.091 56.6603H97.1439L97.8542 55.9504C98.8295 54.9766 98.8138 53.5248 97.8181 52.5902L97.0709 51.8893L69.3775 51.8332C51.9988 51.798 41.4242 51.8815 40.9865 52.0576ZM130.913 57.0252C132.386 57.8582 133.591 58.6554 133.591 58.7965C133.591 58.9963 115.308 90.8019 114.231 92.4746C114.033 92.7826 113.071 92.3468 109.817 90.4752C107.529 89.159 105.617 88.053 105.569 88.0174C105.502 87.9688 117.732 66.6776 124.531 55.0052L125.243 53.7836L126.739 54.6472C127.562 55.1223 129.44 56.1925 130.913 57.0252ZM19.0385 66.6915C18.1652 66.8644 17.2235 68.1225 17.2235 69.1166C17.2235 69.5633 17.5379 70.294 17.922 70.7401L18.6208 71.5515H44.2407H69.8607L70.6075 70.8506C71.6369 69.8846 71.6368 68.3029 70.6078 67.3369L69.8609 66.636L44.7725 66.5998C30.9737 66.5802 19.3934 66.6215 19.0385 66.6915ZM78.4467 66.6909C76.5593 67.1715 75.9138 69.5382 77.3122 70.8506L78.0591 71.5515H87.6133H97.1676L97.8664 70.7401C98.7591 69.7035 98.7591 68.4842 97.8667 67.4473L97.1685 66.636L88.097 66.5897C83.1077 66.5642 78.7651 66.6096 78.4467 66.6909ZM18.5261 79.2741C17.0417 80.1242 16.7604 81.9583 17.9342 83.1305L18.6445 83.8403H31.9339H45.2232L45.9865 83.0782C47.0231 82.0424 46.9933 80.8586 45.9035 79.77L45.0573 78.9248L32.0812 78.9335C22.8659 78.9398 18.9372 79.0384 18.5261 79.2741ZM53.1179 79.299C51.5458 80.0933 51.3562 82.1673 52.7552 83.2667C53.4497 83.8123 53.949 83.8403 62.9443 83.8403C72.0462 83.8403 72.4271 83.8181 73.0333 83.2539C74.3524 82.0265 74.0945 80.0988 72.5038 79.2946C71.4765 78.7756 54.1464 78.7794 53.1179 79.299ZM108.194 95.1889C109.59 95.9835 110.803 96.7486 110.891 96.8894C110.978 97.0302 109.648 98.8313 107.936 100.892L104.822 104.638L103.213 103.723C102.328 103.219 101.247 102.606 100.81 102.359C100.373 102.113 100.015 101.833 100.014 101.737C100.012 101.524 103.183 93.0596 103.39 92.7245C103.471 92.5943 104.014 92.7704 104.597 93.116C105.18 93.4615 106.799 94.3943 108.194 95.1889ZM26.4866 96.7176C18.5976 98.3866 12.436 104.301 10.3801 112.177C9.62607 115.066 9.68686 119.841 10.5142 122.718C12.5931 129.949 17.968 135.317 25.197 137.382C26.9581 137.885 28.2486 138.041 30.6839 138.043C34.628 138.049 36.2426 137.669 40.048 135.842C42.5444 134.643 43.4178 134.033 45.2854 132.181C49.0784 128.422 51.2673 123.792 51.5837 118.857C51.7395 116.43 51.7238 116.35 50.9437 115.574C49.2188 113.859 46.7545 115.145 46.7452 117.765C46.7325 121.373 44.8834 125.612 42.1201 128.369C38.9174 131.565 35.2613 133.104 30.8287 133.121C21.7613 133.157 14.7465 126.15 14.7824 117.093C14.7998 112.665 16.3401 109.013 19.5393 105.814C23.391 101.962 28.9694 100.385 34.302 101.641C35.9868 102.037 36.8682 102.421 40.7141 104.428C41.6835 104.935 41.8561 104.944 42.8026 104.55C43.8994 104.092 44.2633 103.341 44.0945 101.885C43.9047 100.245 39.2436 97.6059 34.9212 96.6907C32.5279 96.1838 28.9561 96.1954 26.4866 96.7176ZM100.182 107.72C101.203 108.29 102.039 108.816 102.039 108.888C102.039 109.358 100.776 111.35 100.241 111.724C98.696 112.805 96.5013 111.719 96.4659 109.856C96.4468 108.835 97.5144 106.683 98.0398 106.683C98.1973 106.683 99.1615 107.15 100.182 107.72ZM39.8023 110.075C39.5635 110.167 37.2468 112.259 34.6543 114.724L29.9406 119.207L26.9529 116.27C24.5003 113.86 23.8093 113.334 23.0943 113.334C21.8669 113.334 20.6972 114.562 20.6972 115.851C20.6972 116.722 21.0738 117.23 23.7621 119.983C25.4477 121.71 27.2815 123.338 27.837 123.602C29.0004 124.153 30.886 124.221 32.1049 123.755C33.2232 123.328 42.081 114.598 42.5815 113.43C43.1433 112.119 42.6347 110.797 41.3645 110.266C40.8339 110.045 40.363 109.874 40.3181 109.887C40.2732 109.899 40.0411 109.984 39.8023 110.075Z"/>
</mask>
<path fill-rule="evenodd" clip-rule="evenodd" d="M4.65498 0.56939C2.99458 1.21708 1.50872 2.54833 0.625836 4.17971L0 5.33631V74.0093V142.682L0.625836 143.839C1.3637 145.202 2.78297 146.597 4.19733 147.349C5.17285 147.867 7.10478 147.89 56.1455 147.962C112.171 148.045 108.516 148.157 110.778 146.295C111.356 145.819 112.166 144.754 112.578 143.927L113.328 142.424V128.652V114.88L112.658 114.251C111.703 113.356 110.156 113.409 109.253 114.369L108.552 115.114L108.48 128.031C108.44 135.135 108.341 141.238 108.258 141.593C107.887 143.199 110.71 143.116 56.439 143.116H6.46852L5.6224 142.271L4.77627 141.426V74.0477V6.66986L5.47477 5.85851L6.17355 5.04716L56.2046 4.97111C91.494 4.91762 106.459 4.98701 106.993 5.20706C107.41 5.37852 107.899 5.80328 108.08 6.15055C108.316 6.60394 108.429 13.5285 108.48 30.686L108.552 54.59L109.253 55.336C110.186 56.3269 111.805 56.3631 112.699 55.4129L113.328 54.7435V30.169V5.59452L112.566 4.06694C111.687 2.30515 109.79 0.765722 107.917 0.293252C107.085 0.0833296 90.8748 -0.0086199 56.391 0.000632883C7.47617 0.0136446 6.03923 0.0295478 4.65498 0.56939ZM23.6952 15.0205C22.2705 15.5947 22.1445 16.1878 22.1445 22.329C22.1445 28.029 22.1486 28.0646 22.8552 28.7704L23.5655 29.4803H56.6726H89.7797L90.3662 28.8297C91.2364 27.8639 91.3669 27.2414 90.9223 26.1779C90.6519 25.5317 90.2163 25.1147 89.5791 24.8929C88.8986 24.6561 80.0744 24.5647 57.8511 24.5647H27.0655V22.107V19.6492H58.4228H89.7797L90.3662 18.9986C91.2364 18.0329 91.3669 17.4103 90.9223 16.3468C90.6519 15.7006 90.2163 15.2836 89.5791 15.0618C88.4366 14.664 24.6789 14.6238 23.6952 15.0205ZM137.509 30.3639C135.956 31.1383 134.849 32.2324 133.854 33.9768C133.075 35.3436 132.958 35.4301 132.037 35.3225C131.495 35.2595 130.793 35.346 130.476 35.5151C130.16 35.6843 128.589 38.0712 126.986 40.8198C122.998 47.6545 123.582 47.073 121.656 46.1318C120.132 45.387 120.001 45.3696 119.016 45.7805C118.299 46.0798 117.914 46.4635 117.766 47.027C117.332 48.6807 117.696 49.3758 119.622 50.5737L120.851 51.3376L110.409 69.3962L99.9659 87.4547L97.3711 94.3631C95.944 98.1628 94.0005 102.752 93.0522 104.562C91.5001 107.525 91.3281 108.027 91.3281 109.6C91.3281 110.736 91.5415 111.842 91.9383 112.764L92.5485 114.181L90.009 117.299C88.612 119.014 87.3786 120.524 87.2674 120.653C87.1565 120.782 86.6436 119.841 86.1278 118.563C84.6709 114.953 82.668 113.517 79.8309 114.049C78.7784 114.246 76.8447 115.894 76.1112 117.219C75.8727 117.65 75.6947 116.542 75.3314 112.363C74.808 106.345 74.5411 105.56 72.5606 104.216C70.694 102.949 67.8888 103.391 66.3728 105.191C65.2876 106.479 59.0194 125.311 59.3016 126.434C59.5564 127.448 61.1071 128.44 62.0915 128.22C62.4896 128.131 63.0757 127.768 63.3942 127.414C63.7242 127.046 65.2135 122.949 66.8586 117.883C68.4454 112.995 69.8227 108.996 69.9188 108.996C70.0149 108.996 70.2601 111.176 70.4636 113.84C70.6709 116.552 71.018 119.126 71.2527 119.691C72.8312 123.488 77.481 124.009 79.8489 120.653C80.3331 119.967 80.8137 119.406 80.9173 119.406C81.0206 119.406 81.4655 120.323 81.9061 121.445C82.9065 123.992 83.7547 125.012 85.3896 125.636C86.9012 126.213 88.412 126.033 89.7716 125.115C90.2687 124.78 92.0191 122.798 93.6615 120.712L96.6474 116.919L98.3041 117.039C99.6212 117.134 100.279 117.013 101.509 116.451C103.44 115.568 104.202 114.764 106.463 111.228C107.453 109.68 110.229 106.04 112.634 103.139L117.006 97.8641L127.501 79.6477C133.274 69.6287 138.035 61.3896 138.081 61.3387C138.281 61.121 140.539 62.4919 140.953 63.082C141.892 64.4211 141.583 65.1688 136.31 74.2984C133.508 79.1489 131.148 83.5344 131.065 84.0439C130.941 84.8067 131.076 85.1314 131.83 85.8849C132.596 86.6494 132.894 86.77 133.647 86.6194C134.143 86.5202 134.718 86.2996 134.923 86.1287C135.506 85.6455 145.748 67.7897 146.055 66.7221C147.013 63.3868 145.647 60.2035 142.357 58.102L140.557 56.9523L143.732 51.4655C147.108 45.6301 147.469 44.5357 146.348 43.5222C145.799 43.0258 145.806 42.9856 146.792 41.194C148.036 38.9329 148.298 37.0791 147.675 34.9501C146.733 31.7348 144.012 29.7599 140.554 29.781C139.263 29.7888 138.29 29.975 137.509 30.3639ZM30.3432 35.3355C29.4696 36.3054 29.3428 36.9244 29.7958 38.0082C30.1076 38.7533 30.4683 39.0621 31.3127 39.3079C32.1 39.5369 39.6546 39.6048 57.4128 39.543L82.4049 39.4559L83.1034 38.6446C84.0161 37.5845 84.0115 36.3137 83.0912 35.3948L82.3809 34.685H56.6553H30.9297L30.3432 35.3355ZM142.268 35.256C143.192 36.1793 143.274 37.1248 142.557 38.6041C142.202 39.3368 141.751 39.9975 141.555 40.0727C141.287 40.1753 138.139 38.5937 137.391 37.9798C137.187 37.8124 138.814 35.2847 139.313 34.9941C140.152 34.506 141.65 34.6387 142.268 35.256ZM136.885 43.4011C139.133 44.6965 141.021 45.797 141.081 45.847C141.167 45.9187 136.684 53.8741 136.312 54.3113C136.24 54.3963 128.282 49.924 127.84 49.5501C127.723 49.4512 132.51 41.0578 132.688 41.0506C132.748 41.0483 134.637 42.106 136.885 43.4011ZM40.9865 52.0576C39.9838 52.4613 39.5325 53.1827 39.5221 54.3983C39.5151 55.2091 39.694 55.604 40.2756 56.0609C41.0351 56.658 41.1492 56.6603 69.091 56.6603H97.1439L97.8542 55.9504C98.8295 54.9766 98.8138 53.5248 97.8181 52.5902L97.0709 51.8893L69.3775 51.8332C51.9988 51.798 41.4242 51.8815 40.9865 52.0576ZM130.913 57.0252C132.386 57.8582 133.591 58.6554 133.591 58.7965C133.591 58.9963 115.308 90.8019 114.231 92.4746C114.033 92.7826 113.071 92.3468 109.817 90.4752C107.529 89.159 105.617 88.053 105.569 88.0174C105.502 87.9688 117.732 66.6776 124.531 55.0052L125.243 53.7836L126.739 54.6472C127.562 55.1223 129.44 56.1925 130.913 57.0252ZM19.0385 66.6915C18.1652 66.8644 17.2235 68.1225 17.2235 69.1166C17.2235 69.5633 17.5379 70.294 17.922 70.7401L18.6208 71.5515H44.2407H69.8607L70.6075 70.8506C71.6369 69.8846 71.6368 68.3029 70.6078 67.3369L69.8609 66.636L44.7725 66.5998C30.9737 66.5802 19.3934 66.6215 19.0385 66.6915ZM78.4467 66.6909C76.5593 67.1715 75.9138 69.5382 77.3122 70.8506L78.0591 71.5515H87.6133H97.1676L97.8664 70.7401C98.7591 69.7035 98.7591 68.4842 97.8667 67.4473L97.1685 66.636L88.097 66.5897C83.1077 66.5642 78.7651 66.6096 78.4467 66.6909ZM18.5261 79.2741C17.0417 80.1242 16.7604 81.9583 17.9342 83.1305L18.6445 83.8403H31.9339H45.2232L45.9865 83.0782C47.0231 82.0424 46.9933 80.8586 45.9035 79.77L45.0573 78.9248L32.0812 78.9335C22.8659 78.9398 18.9372 79.0384 18.5261 79.2741ZM53.1179 79.299C51.5458 80.0933 51.3562 82.1673 52.7552 83.2667C53.4497 83.8123 53.949 83.8403 62.9443 83.8403C72.0462 83.8403 72.4271 83.8181 73.0333 83.2539C74.3524 82.0265 74.0945 80.0988 72.5038 79.2946C71.4765 78.7756 54.1464 78.7794 53.1179 79.299ZM108.194 95.1889C109.59 95.9835 110.803 96.7486 110.891 96.8894C110.978 97.0302 109.648 98.8313 107.936 100.892L104.822 104.638L103.213 103.723C102.328 103.219 101.247 102.606 100.81 102.359C100.373 102.113 100.015 101.833 100.014 101.737C100.012 101.524 103.183 93.0596 103.39 92.7245C103.471 92.5943 104.014 92.7704 104.597 93.116C105.18 93.4615 106.799 94.3943 108.194 95.1889ZM26.4866 96.7176C18.5976 98.3866 12.436 104.301 10.3801 112.177C9.62607 115.066 9.68686 119.841 10.5142 122.718C12.5931 129.949 17.968 135.317 25.197 137.382C26.9581 137.885 28.2486 138.041 30.6839 138.043C34.628 138.049 36.2426 137.669 40.048 135.842C42.5444 134.643 43.4178 134.033 45.2854 132.181C49.0784 128.422 51.2673 123.792 51.5837 118.857C51.7395 116.43 51.7238 116.35 50.9437 115.574C49.2188 113.859 46.7545 115.145 46.7452 117.765C46.7325 121.373 44.8834 125.612 42.1201 128.369C38.9174 131.565 35.2613 133.104 30.8287 133.121C21.7613 133.157 14.7465 126.15 14.7824 117.093C14.7998 112.665 16.3401 109.013 19.5393 105.814C23.391 101.962 28.9694 100.385 34.302 101.641C35.9868 102.037 36.8682 102.421 40.7141 104.428C41.6835 104.935 41.8561 104.944 42.8026 104.55C43.8994 104.092 44.2633 103.341 44.0945 101.885C43.9047 100.245 39.2436 97.6059 34.9212 96.6907C32.5279 96.1838 28.9561 96.1954 26.4866 96.7176ZM100.182 107.72C101.203 108.29 102.039 108.816 102.039 108.888C102.039 109.358 100.776 111.35 100.241 111.724C98.696 112.805 96.5013 111.719 96.4659 109.856C96.4468 108.835 97.5144 106.683 98.0398 106.683C98.1973 106.683 99.1615 107.15 100.182 107.72ZM39.8023 110.075C39.5635 110.167 37.2468 112.259 34.6543 114.724L29.9406 119.207L26.9529 116.27C24.5003 113.86 23.8093 113.334 23.0943 113.334C21.8669 113.334 20.6972 114.562 20.6972 115.851C20.6972 116.722 21.0738 117.23 23.7621 119.983C25.4477 121.71 27.2815 123.338 27.837 123.602C29.0004 124.153 30.886 124.221 32.1049 123.755C33.2232 123.328 42.081 114.598 42.5815 113.43C43.1433 112.119 42.6347 110.797 41.3645 110.266C40.8339 110.045 40.363 109.874 40.3181 109.887C40.2732 109.899 40.0411 109.984 39.8023 110.075Z" fill="#0B9CEF" stroke="#0B9CEF" mask="url(#path-1-inside-1_14_605)"/>
</svg>
