<svg width="153" height="148" viewBox="0 0 153 148" fill="none" xmlns="http://www.w3.org/2000/svg">
<mask id="path-1-inside-1_14_599" fill="white">
<path fill-rule="evenodd" clip-rule="evenodd" d="M72.0957 0.524107C70.65 1.4115 70.4941 2.32122 70.4941 9.85675C70.4941 17.3018 70.6753 18.2937 72.1594 18.9697C72.6559 19.1959 75.5228 19.3088 80.7768 19.3088H88.6504V23.1346V26.9604L86.046 27.1298C75.3519 27.8261 62.6306 33.0022 53.5283 40.3612C48.5291 44.4028 43.1504 50.569 39.8938 55.9919C36.9049 60.9694 34.1755 67.2324 34.188 69.0849C34.2052 71.6062 37.4874 72.8934 39.1396 71.0266C39.4634 70.6608 40.1081 69.3567 40.5722 68.1287C44.7305 57.1249 52.6152 47.4704 62.5252 41.248C82.115 28.9474 107.213 30.2248 125.398 44.4481C128.643 46.9864 133.903 52.5016 136.35 55.9324C138.629 59.1271 142.068 65.8348 143.378 69.6406C145.509 75.8292 146.585 83.2593 146.285 89.7107C145.421 108.308 135.523 124.893 119.577 134.462C110.228 140.071 98.3605 142.86 87.6613 141.96C76.1681 140.994 67.0468 137.423 57.4492 130.132C55.8259 128.899 54.2623 128.807 53.0241 129.872C52.3291 130.47 52.1889 130.826 52.1889 131.991C52.1889 133.279 52.2961 133.484 53.5283 134.558C55.9333 136.653 61.0394 139.888 64.9877 141.817C70.9507 144.731 76.3761 146.44 82.9952 147.492C87.2738 148.172 96.015 148.169 100.373 147.486C115.237 145.157 128.64 137.758 137.777 126.838C150.59 111.524 155.237 91.8635 150.534 72.8589C148.464 64.4928 143.769 55.1465 138.54 48.9815C137.621 47.8979 136.869 46.9034 136.869 46.7715C136.869 46.6396 137.868 45.5388 139.09 44.3251L141.311 42.1184L143.047 43.7747C144.049 44.7303 145.178 45.5173 145.715 45.6355C147.666 46.0639 149.532 44.1319 149.149 42.0815C149.029 41.4412 147.668 39.8507 144.339 36.4615C141.786 33.8619 139.174 31.3503 138.536 30.88C137.052 29.7875 135.742 29.7601 134.511 30.796C133.738 31.4462 133.595 31.776 133.595 32.9054C133.595 34.136 133.739 34.3941 135.372 36.0951L137.149 37.9458L134.78 40.3008L132.411 42.6557L131.292 41.5966C126.98 37.5186 118.655 32.6512 112.016 30.3272C107.038 28.5849 101.012 27.3388 95.7939 26.9726L94.7521 26.8997L94.6688 23.1042L94.5854 19.3088H102.803H111.02L111.89 18.4386L112.76 17.5685V9.81061V2.05271L111.891 1.08048L111.023 0.108245L92.0233 0.0311451C73.7554 -0.0426802 72.9883 -0.0236285 72.0957 0.524107ZM106.807 9.63409V13.3551H91.6269H76.447V9.83264C76.447 7.89502 76.5363 6.22056 76.6455 6.11161C76.7544 6.00236 83.5854 5.91305 91.8254 5.91305H106.807V9.63409ZM107.099 69.7761L97.6961 79.1632L95.9263 78.3344C93.5761 77.2336 89.874 77.1541 87.6929 78.1573C82.5993 80.5001 80.2574 86.5776 82.5261 91.5664C83.5065 93.7229 85.5879 95.8307 87.6929 96.7988C89.8207 97.7776 93.5806 97.7207 95.8076 96.6762C98.0813 95.6096 99.3921 94.3748 100.584 92.177C101.567 90.3638 101.598 90.2025 101.598 86.9589V83.6121L111.032 74.1586C117.288 67.8894 120.532 64.4276 120.664 63.8811C121.101 62.0703 119.634 60.389 117.617 60.389C116.55 60.389 116.09 60.7998 107.099 69.7761ZM24.9872 76.5817C23.2311 77.5551 22.998 79.6273 24.4782 81.1077L25.4902 82.1198H40.1194C55.7455 82.1198 56.0187 82.0957 56.7935 80.6477C57.4004 79.5136 57.159 77.9653 56.2301 77.0363L55.36 76.1661L40.5293 76.1766C28.7911 76.1849 25.5503 76.2694 24.9872 76.5817ZM93.3532 83.7288C94.8292 84.4968 95.5718 85.569 95.7239 87.1515C96.1683 91.7772 90.0422 93.3671 87.9551 89.168C86.302 85.8426 90.0868 82.029 93.3532 83.7288ZM16.323 98.2816C15.6307 98.5206 15.0917 98.996 14.714 99.7009C14.0374 100.964 14.2202 102.073 15.2795 103.132L15.998 103.851H35.7786H55.5589L56.3295 102.935C57.4406 101.614 57.3858 100.068 56.1878 98.9201L55.2755 98.0458L36.32 97.9839C22.1381 97.9374 17.1023 98.0125 16.323 98.2816ZM2.12033 120.73C1.7575 120.8 1.10745 121.277 0.675265 121.791C0.020447 122.569 -0.0831333 122.925 0.0514021 123.929C0.158257 124.725 0.477629 125.361 0.992257 125.804L1.77149 126.474H28.5658H55.36L56.2301 125.604C57.793 124.041 57.2281 121.603 55.1175 120.8C54.4019 120.528 3.51152 120.46 2.12033 120.73Z"/>
</mask>
<path fill-rule="evenodd" clip-rule="evenodd" d="M72.0957 0.524107C70.65 1.4115 70.4941 2.32122 70.4941 9.85675C70.4941 17.3018 70.6753 18.2937 72.1594 18.9697C72.6559 19.1959 75.5228 19.3088 80.7768 19.3088H88.6504V23.1346V26.9604L86.046 27.1298C75.3519 27.8261 62.6306 33.0022 53.5283 40.3612C48.5291 44.4028 43.1504 50.569 39.8938 55.9919C36.9049 60.9694 34.1755 67.2324 34.188 69.0849C34.2052 71.6062 37.4874 72.8934 39.1396 71.0266C39.4634 70.6608 40.1081 69.3567 40.5722 68.1287C44.7305 57.1249 52.6152 47.4704 62.5252 41.248C82.115 28.9474 107.213 30.2248 125.398 44.4481C128.643 46.9864 133.903 52.5016 136.35 55.9324C138.629 59.1271 142.068 65.8348 143.378 69.6406C145.509 75.8292 146.585 83.2593 146.285 89.7107C145.421 108.308 135.523 124.893 119.577 134.462C110.228 140.071 98.3605 142.86 87.6613 141.96C76.1681 140.994 67.0468 137.423 57.4492 130.132C55.8259 128.899 54.2623 128.807 53.0241 129.872C52.3291 130.47 52.1889 130.826 52.1889 131.991C52.1889 133.279 52.2961 133.484 53.5283 134.558C55.9333 136.653 61.0394 139.888 64.9877 141.817C70.9507 144.731 76.3761 146.44 82.9952 147.492C87.2738 148.172 96.015 148.169 100.373 147.486C115.237 145.157 128.64 137.758 137.777 126.838C150.59 111.524 155.237 91.8635 150.534 72.8589C148.464 64.4928 143.769 55.1465 138.54 48.9815C137.621 47.8979 136.869 46.9034 136.869 46.7715C136.869 46.6396 137.868 45.5388 139.09 44.3251L141.311 42.1184L143.047 43.7747C144.049 44.7303 145.178 45.5173 145.715 45.6355C147.666 46.0639 149.532 44.1319 149.149 42.0815C149.029 41.4412 147.668 39.8507 144.339 36.4615C141.786 33.8619 139.174 31.3503 138.536 30.88C137.052 29.7875 135.742 29.7601 134.511 30.796C133.738 31.4462 133.595 31.776 133.595 32.9054C133.595 34.136 133.739 34.3941 135.372 36.0951L137.149 37.9458L134.78 40.3008L132.411 42.6557L131.292 41.5966C126.98 37.5186 118.655 32.6512 112.016 30.3272C107.038 28.5849 101.012 27.3388 95.7939 26.9726L94.7521 26.8997L94.6688 23.1042L94.5854 19.3088H102.803H111.02L111.89 18.4386L112.76 17.5685V9.81061V2.05271L111.891 1.08048L111.023 0.108245L92.0233 0.0311451C73.7554 -0.0426802 72.9883 -0.0236285 72.0957 0.524107ZM106.807 9.63409V13.3551H91.6269H76.447V9.83264C76.447 7.89502 76.5363 6.22056 76.6455 6.11161C76.7544 6.00236 83.5854 5.91305 91.8254 5.91305H106.807V9.63409ZM107.099 69.7761L97.6961 79.1632L95.9263 78.3344C93.5761 77.2336 89.874 77.1541 87.6929 78.1573C82.5993 80.5001 80.2574 86.5776 82.5261 91.5664C83.5065 93.7229 85.5879 95.8307 87.6929 96.7988C89.8207 97.7776 93.5806 97.7207 95.8076 96.6762C98.0813 95.6096 99.3921 94.3748 100.584 92.177C101.567 90.3638 101.598 90.2025 101.598 86.9589V83.6121L111.032 74.1586C117.288 67.8894 120.532 64.4276 120.664 63.8811C121.101 62.0703 119.634 60.389 117.617 60.389C116.55 60.389 116.09 60.7998 107.099 69.7761ZM24.9872 76.5817C23.2311 77.5551 22.998 79.6273 24.4782 81.1077L25.4902 82.1198H40.1194C55.7455 82.1198 56.0187 82.0957 56.7935 80.6477C57.4004 79.5136 57.159 77.9653 56.2301 77.0363L55.36 76.1661L40.5293 76.1766C28.7911 76.1849 25.5503 76.2694 24.9872 76.5817ZM93.3532 83.7288C94.8292 84.4968 95.5718 85.569 95.7239 87.1515C96.1683 91.7772 90.0422 93.3671 87.9551 89.168C86.302 85.8426 90.0868 82.029 93.3532 83.7288ZM16.323 98.2816C15.6307 98.5206 15.0917 98.996 14.714 99.7009C14.0374 100.964 14.2202 102.073 15.2795 103.132L15.998 103.851H35.7786H55.5589L56.3295 102.935C57.4406 101.614 57.3858 100.068 56.1878 98.9201L55.2755 98.0458L36.32 97.9839C22.1381 97.9374 17.1023 98.0125 16.323 98.2816ZM2.12033 120.73C1.7575 120.8 1.10745 121.277 0.675265 121.791C0.020447 122.569 -0.0831333 122.925 0.0514021 123.929C0.158257 124.725 0.477629 125.361 0.992257 125.804L1.77149 126.474H28.5658H55.36L56.2301 125.604C57.793 124.041 57.2281 121.603 55.1175 120.8C54.4019 120.528 3.51152 120.46 2.12033 120.73Z" fill="#0B9CEF" stroke="#0B9CEF" stroke-width="2.4" mask="url(#path-1-inside-1_14_599)"/>
</svg>
