<svg width="35" height="41" viewBox="0 0 35 41" fill="none" xmlns="http://www.w3.org/2000/svg">
<path fill-rule="evenodd" clip-rule="evenodd" d="M27.02 8.06392C28.2703 9.32696 29.2624 10.8265 29.939 12.4769C30.6158 14.1274 30.964 15.8963 30.964 17.6828C30.964 19.4692 30.6158 21.2381 29.939 22.8886C29.2624 24.539 28.2703 26.0386 27.02 27.3016L17.5 36.915L7.98 27.2989C6.72983 26.0358 5.73811 24.5361 5.06154 22.8857C4.38493 21.2353 4.03668 19.4664 4.03668 17.68C4.03668 15.8936 4.38493 14.1248 5.06154 12.4744C5.73811 10.824 6.72983 9.32435 7.98 8.0612C9.2302 6.79802 10.7144 5.79604 12.3478 5.11241C13.9813 4.42878 15.732 4.07694 17.5 4.07694C19.268 4.07694 21.0187 4.42878 22.6522 5.11241C24.2857 5.79604 25.7697 6.79802 27.02 8.0612V8.06392ZM29.8738 30.1851C32.3214 27.7123 33.9882 24.5617 34.6637 21.1318C35.339 17.7018 34.9925 14.1465 33.6681 10.9155C32.3435 7.68455 30.1005 4.92297 27.2227 2.98C24.3446 1.03705 20.9612 0 17.5 0C14.0388 0 10.6553 1.03705 7.77737 2.98C4.89949 4.92297 2.65647 7.68455 1.33196 10.9155C0.00748427 14.1465 -0.338989 17.7018 0.336377 21.1318C1.01174 24.5617 2.6786 27.7123 5.12615 30.1851L14.6435 39.8039C15.0185 40.1831 15.4638 40.484 15.954 40.6891C16.4441 40.8945 16.9694 41 17.5 41C18.0306 41 18.5559 40.8945 19.0461 40.6891C19.5362 40.484 19.9815 40.1831 20.3565 39.8039L29.8738 30.1851ZM17.5 23.1233C18.9281 23.1233 20.2977 22.5501 21.3075 21.5298C22.3173 20.5095 22.8846 19.1257 22.8846 17.6828C22.8846 16.2398 22.3173 14.856 21.3075 13.8357C20.2977 12.8154 18.9281 12.2422 17.5 12.2422C16.0719 12.2422 14.7023 12.8154 13.6925 13.8357C12.6827 14.856 12.1154 16.2398 12.1154 17.6828C12.1154 19.1257 12.6827 20.5095 13.6925 21.5298C14.7023 22.5501 16.0719 23.1233 17.5 23.1233Z" fill="white"/>
</svg>
