<svg width="44" height="43" viewBox="0 0 44 43" fill="none" xmlns="http://www.w3.org/2000/svg">
<mask id="path-1-outside-1_53_379" maskUnits="userSpaceOnUse" x="0" y="0" width="44" height="43" fill="black">
<rect fill="white" width="44" height="43"/>
<path fill-rule="evenodd" clip-rule="evenodd" d="M16.934 1.16877C16.3005 1.45652 15.8672 2.01222 15.1111 3.50626C14.7244 4.27021 14.325 4.9705 14.2235 5.06244C14.0035 5.26164 13.6729 5.23282 12.1285 4.87999C10.3739 4.47917 9.45664 4.57541 8.76622 5.23282C8.17256 5.7981 8.0622 6.26508 8.00036 8.47365C7.97968 9.21226 7.92178 9.92329 7.87174 10.0537C7.76551 10.33 7.45386 10.4489 5.88973 10.8099C4.0401 11.2368 3.24774 11.7501 2.97154 12.7007C2.74591 13.4769 2.86297 13.9664 3.7093 15.7853C4.07062 16.5619 4.27871 17.1248 4.27871 17.3256C4.27871 17.6633 4.21471 17.7278 2.42057 19.2006C1.30833 20.1137 0.836124 21.0527 1.0503 21.9253C1.24219 22.7074 1.76452 23.3206 3.15699 24.3991C4.03115 25.0761 4.27871 25.3606 4.27871 25.6885C4.27871 25.872 4.05495 26.4717 3.7093 27.2147C2.86297 29.0336 2.74591 29.5231 2.97154 30.2993C3.24774 31.2499 4.0401 31.7632 5.88973 32.1901C7.45127 32.5505 7.76578 32.6703 7.86987 32.9441C7.919 33.0733 7.97664 33.8246 7.99803 34.6137C8.01933 35.4027 8.06211 36.2075 8.09299 36.4021C8.22536 37.2364 8.7195 37.9057 9.42504 38.2061C9.96885 38.4377 10.9233 38.3935 12.3453 38.0709C13.8108 37.7384 14.0338 37.7297 14.2766 37.9956C14.3777 38.1064 14.7651 38.8013 15.1375 39.5399C16.1052 41.4596 16.6862 41.9956 17.8038 42C18.475 42.0026 19.2521 41.6045 20.4337 40.6528C22.042 39.3573 21.9338 39.3542 23.7005 40.7484C24.8713 41.6723 25.5325 42.0025 26.2066 41.9999C27.3126 41.9957 27.8978 41.4537 28.8625 39.5399C29.2349 38.8013 29.6223 38.1064 29.7234 37.9956C29.965 37.7309 30.17 37.7391 31.6444 38.0713C33.7335 38.5421 34.6315 38.4388 35.3278 37.6477C35.8096 37.1 35.945 36.494 35.995 34.6606C36.0171 33.8482 36.0767 33.0767 36.1274 32.9463C36.2346 32.6701 36.5471 32.5508 38.1103 32.1901C39.9443 31.7668 40.7547 31.2414 41.029 30.2978C41.254 29.5232 41.1366 29.0326 40.2907 27.2147C39.945 26.4717 39.7213 25.872 39.7213 25.6885C39.7213 25.3606 39.9688 25.0761 40.843 24.3991C42.2355 23.3206 42.7578 22.7074 42.9497 21.9253C43.1639 21.0527 42.6917 20.1137 41.5794 19.2006C39.7853 17.7278 39.7213 17.6633 39.7213 17.3256C39.7213 17.1248 39.9294 16.5619 40.2907 15.7853C41.137 13.9664 41.2541 13.4769 41.0285 12.7007C40.752 11.7492 40.0223 11.2659 38.2192 10.8397C36.517 10.4374 36.2349 10.3314 36.1283 10.0537C36.0782 9.92329 36.0209 9.21226 36.0009 8.47365C35.9415 6.27815 35.828 5.79863 35.2338 5.23282C34.5434 4.57541 33.6261 4.47917 31.8715 4.87999C30.3271 5.23282 29.9965 5.26164 29.7765 5.06244C29.675 4.9705 29.2756 4.27021 28.8889 3.50626C27.8948 1.54202 27.3194 1.0044 26.2066 1.0001C25.5325 0.997506 24.8713 1.32769 23.7005 2.25162C21.9338 3.64584 22.042 3.64271 20.4337 2.34723C19.2521 1.39546 18.475 0.997416 17.8038 1.00001C17.5085 1.00118 17.1497 1.07074 16.934 1.16877ZM18.5148 3.29202C18.824 3.51969 19.3696 3.9386 19.7272 4.22285C20.6571 4.96208 21.275 5.23801 22 5.23801C22.7835 5.23801 23.3048 4.97829 24.6987 3.8933C26.05 2.84152 26.1435 2.79326 26.3928 3.01896C26.4957 3.11207 26.8794 3.77995 27.2456 4.50307C28.3398 6.66401 28.9454 7.15311 30.4112 7.06C30.8307 7.03332 31.6246 6.90744 32.1754 6.78013C33.2723 6.52677 33.8538 6.488 33.9655 6.6607C34.0054 6.7223 34.0629 7.53808 34.0935 8.47365C34.1923 11.4989 34.521 11.903 37.4697 12.6251C38.271 12.8213 38.9846 13.03 39.0555 13.0888C39.2823 13.2772 39.1972 13.6136 38.6039 14.872C37.7089 16.7705 37.5849 17.5119 38.0196 18.3643C38.2856 18.8859 38.6674 19.2865 39.6729 20.0993C40.6936 20.9244 41.0638 21.298 41.0638 21.503C41.0638 21.6938 40.6529 22.1036 39.6281 22.9347C37.4521 24.6994 37.315 25.3939 38.6039 28.128C39.1972 29.3865 39.2823 29.7228 39.0555 29.9112C38.9846 29.97 38.271 30.1787 37.4697 30.3749C35.8623 30.7685 35.1237 31.098 34.6999 31.6103C34.2621 32.1398 34.1572 32.6454 34.0946 34.5264C34.0635 35.4619 34.0054 36.2778 33.9655 36.3393C33.8507 36.5168 33.2782 36.4716 31.9794 36.1826C29.2299 35.5708 28.5612 35.8945 27.2598 38.4672C26.8858 39.2067 26.4957 39.8879 26.3928 39.981C26.1435 40.2067 26.05 40.1585 24.6987 39.1067C23.3048 38.0217 22.7835 37.762 22 37.762C21.2165 37.762 20.6952 38.0217 19.3013 39.1067C17.95 40.1585 17.8565 40.2067 17.6072 39.981C17.5043 39.8879 17.1206 39.22 16.7544 38.4969C15.6602 36.336 15.0546 35.8469 13.5888 35.94C13.1693 35.9667 12.3754 36.0926 11.8246 36.2199C10.7277 36.4732 10.1462 36.512 10.0345 36.3393C9.99463 36.2778 9.93708 35.4619 9.90647 34.5264C9.80766 31.5011 9.47901 31.097 6.5303 30.3749C5.72899 30.1787 5.01539 29.97 4.94451 29.9112C4.71771 29.7228 4.80283 29.3865 5.39613 28.128C6.68728 25.3891 6.53746 24.6572 4.32346 22.8884C3.3427 22.1049 2.93619 21.6951 2.93619 21.4899C2.93619 21.2918 3.28524 20.9448 4.36257 20.0721C6.54891 18.3011 6.68639 17.6091 5.39613 14.872C4.80175 13.6112 4.71753 13.2773 4.94621 13.0875C5.01799 13.0279 5.72953 12.8189 6.52734 12.6231C8.50882 12.1368 9.11456 11.8147 9.50783 11.0385C9.8142 10.4337 9.9173 9.74002 9.9173 8.28394C9.9173 6.69974 9.96429 6.54879 10.4574 6.54879C10.6585 6.54879 11.2737 6.65291 11.8246 6.78013C14.7124 7.4473 15.4309 7.12052 16.7273 4.55043C17.3653 3.28558 17.6373 2.87814 17.8439 2.87814C17.9038 2.87814 18.2057 3.06444 18.5148 3.29202ZM16.4957 13.4725C15.156 13.8119 14.2313 14.7838 13.9495 16.1483C13.6586 17.5566 14.4353 19.0541 15.8071 19.7297C16.3466 19.9953 16.478 20.0228 17.2098 20.0223C17.9263 20.022 18.0826 19.9908 18.5989 19.7452C19.3383 19.3938 19.8944 18.8375 20.2458 18.0979C20.4913 17.5814 20.5224 17.4251 20.5228 16.7084C20.5232 15.9764 20.4957 15.845 20.2302 15.3053C19.5367 13.8963 17.9317 13.1085 16.4957 13.4725ZM28.2204 13.9927C27.9416 14.1439 14.6655 27.4232 14.5209 27.6954C14.1769 28.3426 14.5678 29.1099 15.2417 29.1099C15.4209 29.1099 15.6556 29.0654 15.7632 29.0111C16.0408 28.8707 29.3237 15.597 29.4791 15.3046C29.8283 14.6476 29.4313 13.8873 28.7419 13.8928C28.5535 13.8943 28.3188 13.9393 28.2204 13.9927ZM17.8794 15.4551C18.4463 15.7483 18.7684 16.4836 18.6015 17.1034C18.4758 17.5707 17.9309 18.059 17.4433 18.1413C16.964 18.2224 16.3166 17.918 16.018 17.4712C15.7489 17.0686 15.775 16.3063 16.0722 15.8888C16.4435 15.3672 17.3083 15.1596 17.8794 15.4551ZM25.8933 23.0522C24.8832 23.389 24.1877 23.9904 23.7538 24.9021C23.5076 25.4193 23.4768 25.5738 23.4768 26.2916C23.4768 27.0232 23.5044 27.1555 23.7698 27.6947C24.4452 29.0669 25.9422 29.8438 27.3501 29.5529C28.7669 29.2601 29.7643 28.263 30.0519 26.8517C30.3366 25.4544 29.5622 23.9447 28.2223 23.2848C27.552 22.9547 26.5005 22.8496 25.8933 23.0522ZM27.3728 25.014C27.9595 25.3105 28.2001 25.7177 28.1566 26.3403C28.0976 27.1853 27.5692 27.6774 26.7209 27.6774C26.1934 27.6774 25.7726 27.3917 25.5046 26.8517C25.2263 26.2907 25.2974 25.8231 25.7345 25.3391C26.2217 24.7997 26.7438 24.6962 27.3728 25.014Z"/>
</mask>
<path fill-rule="evenodd" clip-rule="evenodd" d="M16.934 1.16877C16.3005 1.45652 15.8672 2.01222 15.1111 3.50626C14.7244 4.27021 14.325 4.9705 14.2235 5.06244C14.0035 5.26164 13.6729 5.23282 12.1285 4.87999C10.3739 4.47917 9.45664 4.57541 8.76622 5.23282C8.17256 5.7981 8.0622 6.26508 8.00036 8.47365C7.97968 9.21226 7.92178 9.92329 7.87174 10.0537C7.76551 10.33 7.45386 10.4489 5.88973 10.8099C4.0401 11.2368 3.24774 11.7501 2.97154 12.7007C2.74591 13.4769 2.86297 13.9664 3.7093 15.7853C4.07062 16.5619 4.27871 17.1248 4.27871 17.3256C4.27871 17.6633 4.21471 17.7278 2.42057 19.2006C1.30833 20.1137 0.836124 21.0527 1.0503 21.9253C1.24219 22.7074 1.76452 23.3206 3.15699 24.3991C4.03115 25.0761 4.27871 25.3606 4.27871 25.6885C4.27871 25.872 4.05495 26.4717 3.7093 27.2147C2.86297 29.0336 2.74591 29.5231 2.97154 30.2993C3.24774 31.2499 4.0401 31.7632 5.88973 32.1901C7.45127 32.5505 7.76578 32.6703 7.86987 32.9441C7.919 33.0733 7.97664 33.8246 7.99803 34.6137C8.01933 35.4027 8.06211 36.2075 8.09299 36.4021C8.22536 37.2364 8.7195 37.9057 9.42504 38.2061C9.96885 38.4377 10.9233 38.3935 12.3453 38.0709C13.8108 37.7384 14.0338 37.7297 14.2766 37.9956C14.3777 38.1064 14.7651 38.8013 15.1375 39.5399C16.1052 41.4596 16.6862 41.9956 17.8038 42C18.475 42.0026 19.2521 41.6045 20.4337 40.6528C22.042 39.3573 21.9338 39.3542 23.7005 40.7484C24.8713 41.6723 25.5325 42.0025 26.2066 41.9999C27.3126 41.9957 27.8978 41.4537 28.8625 39.5399C29.2349 38.8013 29.6223 38.1064 29.7234 37.9956C29.965 37.7309 30.17 37.7391 31.6444 38.0713C33.7335 38.5421 34.6315 38.4388 35.3278 37.6477C35.8096 37.1 35.945 36.494 35.995 34.6606C36.0171 33.8482 36.0767 33.0767 36.1274 32.9463C36.2346 32.6701 36.5471 32.5508 38.1103 32.1901C39.9443 31.7668 40.7547 31.2414 41.029 30.2978C41.254 29.5232 41.1366 29.0326 40.2907 27.2147C39.945 26.4717 39.7213 25.872 39.7213 25.6885C39.7213 25.3606 39.9688 25.0761 40.843 24.3991C42.2355 23.3206 42.7578 22.7074 42.9497 21.9253C43.1639 21.0527 42.6917 20.1137 41.5794 19.2006C39.7853 17.7278 39.7213 17.6633 39.7213 17.3256C39.7213 17.1248 39.9294 16.5619 40.2907 15.7853C41.137 13.9664 41.2541 13.4769 41.0285 12.7007C40.752 11.7492 40.0223 11.2659 38.2192 10.8397C36.517 10.4374 36.2349 10.3314 36.1283 10.0537C36.0782 9.92329 36.0209 9.21226 36.0009 8.47365C35.9415 6.27815 35.828 5.79863 35.2338 5.23282C34.5434 4.57541 33.6261 4.47917 31.8715 4.87999C30.3271 5.23282 29.9965 5.26164 29.7765 5.06244C29.675 4.9705 29.2756 4.27021 28.8889 3.50626C27.8948 1.54202 27.3194 1.0044 26.2066 1.0001C25.5325 0.997506 24.8713 1.32769 23.7005 2.25162C21.9338 3.64584 22.042 3.64271 20.4337 2.34723C19.2521 1.39546 18.475 0.997416 17.8038 1.00001C17.5085 1.00118 17.1497 1.07074 16.934 1.16877ZM18.5148 3.29202C18.824 3.51969 19.3696 3.9386 19.7272 4.22285C20.6571 4.96208 21.275 5.23801 22 5.23801C22.7835 5.23801 23.3048 4.97829 24.6987 3.8933C26.05 2.84152 26.1435 2.79326 26.3928 3.01896C26.4957 3.11207 26.8794 3.77995 27.2456 4.50307C28.3398 6.66401 28.9454 7.15311 30.4112 7.06C30.8307 7.03332 31.6246 6.90744 32.1754 6.78013C33.2723 6.52677 33.8538 6.488 33.9655 6.6607C34.0054 6.7223 34.0629 7.53808 34.0935 8.47365C34.1923 11.4989 34.521 11.903 37.4697 12.6251C38.271 12.8213 38.9846 13.03 39.0555 13.0888C39.2823 13.2772 39.1972 13.6136 38.6039 14.872C37.7089 16.7705 37.5849 17.5119 38.0196 18.3643C38.2856 18.8859 38.6674 19.2865 39.6729 20.0993C40.6936 20.9244 41.0638 21.298 41.0638 21.503C41.0638 21.6938 40.6529 22.1036 39.6281 22.9347C37.4521 24.6994 37.315 25.3939 38.6039 28.128C39.1972 29.3865 39.2823 29.7228 39.0555 29.9112C38.9846 29.97 38.271 30.1787 37.4697 30.3749C35.8623 30.7685 35.1237 31.098 34.6999 31.6103C34.2621 32.1398 34.1572 32.6454 34.0946 34.5264C34.0635 35.4619 34.0054 36.2778 33.9655 36.3393C33.8507 36.5168 33.2782 36.4716 31.9794 36.1826C29.2299 35.5708 28.5612 35.8945 27.2598 38.4672C26.8858 39.2067 26.4957 39.8879 26.3928 39.981C26.1435 40.2067 26.05 40.1585 24.6987 39.1067C23.3048 38.0217 22.7835 37.762 22 37.762C21.2165 37.762 20.6952 38.0217 19.3013 39.1067C17.95 40.1585 17.8565 40.2067 17.6072 39.981C17.5043 39.8879 17.1206 39.22 16.7544 38.4969C15.6602 36.336 15.0546 35.8469 13.5888 35.94C13.1693 35.9667 12.3754 36.0926 11.8246 36.2199C10.7277 36.4732 10.1462 36.512 10.0345 36.3393C9.99463 36.2778 9.93708 35.4619 9.90647 34.5264C9.80766 31.5011 9.47901 31.097 6.5303 30.3749C5.72899 30.1787 5.01539 29.97 4.94451 29.9112C4.71771 29.7228 4.80283 29.3865 5.39613 28.128C6.68728 25.3891 6.53746 24.6572 4.32346 22.8884C3.3427 22.1049 2.93619 21.6951 2.93619 21.4899C2.93619 21.2918 3.28524 20.9448 4.36257 20.0721C6.54891 18.3011 6.68639 17.6091 5.39613 14.872C4.80175 13.6112 4.71753 13.2773 4.94621 13.0875C5.01799 13.0279 5.72953 12.8189 6.52734 12.6231C8.50882 12.1368 9.11456 11.8147 9.50783 11.0385C9.8142 10.4337 9.9173 9.74002 9.9173 8.28394C9.9173 6.69974 9.96429 6.54879 10.4574 6.54879C10.6585 6.54879 11.2737 6.65291 11.8246 6.78013C14.7124 7.4473 15.4309 7.12052 16.7273 4.55043C17.3653 3.28558 17.6373 2.87814 17.8439 2.87814C17.9038 2.87814 18.2057 3.06444 18.5148 3.29202ZM16.4957 13.4725C15.156 13.8119 14.2313 14.7838 13.9495 16.1483C13.6586 17.5566 14.4353 19.0541 15.8071 19.7297C16.3466 19.9953 16.478 20.0228 17.2098 20.0223C17.9263 20.022 18.0826 19.9908 18.5989 19.7452C19.3383 19.3938 19.8944 18.8375 20.2458 18.0979C20.4913 17.5814 20.5224 17.4251 20.5228 16.7084C20.5232 15.9764 20.4957 15.845 20.2302 15.3053C19.5367 13.8963 17.9317 13.1085 16.4957 13.4725ZM28.2204 13.9927C27.9416 14.1439 14.6655 27.4232 14.5209 27.6954C14.1769 28.3426 14.5678 29.1099 15.2417 29.1099C15.4209 29.1099 15.6556 29.0654 15.7632 29.0111C16.0408 28.8707 29.3237 15.597 29.4791 15.3046C29.8283 14.6476 29.4313 13.8873 28.7419 13.8928C28.5535 13.8943 28.3188 13.9393 28.2204 13.9927ZM17.8794 15.4551C18.4463 15.7483 18.7684 16.4836 18.6015 17.1034C18.4758 17.5707 17.9309 18.059 17.4433 18.1413C16.964 18.2224 16.3166 17.918 16.018 17.4712C15.7489 17.0686 15.775 16.3063 16.0722 15.8888C16.4435 15.3672 17.3083 15.1596 17.8794 15.4551ZM25.8933 23.0522C24.8832 23.389 24.1877 23.9904 23.7538 24.9021C23.5076 25.4193 23.4768 25.5738 23.4768 26.2916C23.4768 27.0232 23.5044 27.1555 23.7698 27.6947C24.4452 29.0669 25.9422 29.8438 27.3501 29.5529C28.7669 29.2601 29.7643 28.263 30.0519 26.8517C30.3366 25.4544 29.5622 23.9447 28.2223 23.2848C27.552 22.9547 26.5005 22.8496 25.8933 23.0522ZM27.3728 25.014C27.9595 25.3105 28.2001 25.7177 28.1566 26.3403C28.0976 27.1853 27.5692 27.6774 26.7209 27.6774C26.1934 27.6774 25.7726 27.3917 25.5046 26.8517C25.2263 26.2907 25.2974 25.8231 25.7345 25.3391C26.2217 24.7997 26.7438 24.6962 27.3728 25.014Z" fill="white"/>
<path fill-rule="evenodd" clip-rule="evenodd" d="M16.934 1.16877C16.3005 1.45652 15.8672 2.01222 15.1111 3.50626C14.7244 4.27021 14.325 4.9705 14.2235 5.06244C14.0035 5.26164 13.6729 5.23282 12.1285 4.87999C10.3739 4.47917 9.45664 4.57541 8.76622 5.23282C8.17256 5.7981 8.0622 6.26508 8.00036 8.47365C7.97968 9.21226 7.92178 9.92329 7.87174 10.0537C7.76551 10.33 7.45386 10.4489 5.88973 10.8099C4.0401 11.2368 3.24774 11.7501 2.97154 12.7007C2.74591 13.4769 2.86297 13.9664 3.7093 15.7853C4.07062 16.5619 4.27871 17.1248 4.27871 17.3256C4.27871 17.6633 4.21471 17.7278 2.42057 19.2006C1.30833 20.1137 0.836124 21.0527 1.0503 21.9253C1.24219 22.7074 1.76452 23.3206 3.15699 24.3991C4.03115 25.0761 4.27871 25.3606 4.27871 25.6885C4.27871 25.872 4.05495 26.4717 3.7093 27.2147C2.86297 29.0336 2.74591 29.5231 2.97154 30.2993C3.24774 31.2499 4.0401 31.7632 5.88973 32.1901C7.45127 32.5505 7.76578 32.6703 7.86987 32.9441C7.919 33.0733 7.97664 33.8246 7.99803 34.6137C8.01933 35.4027 8.06211 36.2075 8.09299 36.4021C8.22536 37.2364 8.7195 37.9057 9.42504 38.2061C9.96885 38.4377 10.9233 38.3935 12.3453 38.0709C13.8108 37.7384 14.0338 37.7297 14.2766 37.9956C14.3777 38.1064 14.7651 38.8013 15.1375 39.5399C16.1052 41.4596 16.6862 41.9956 17.8038 42C18.475 42.0026 19.2521 41.6045 20.4337 40.6528C22.042 39.3573 21.9338 39.3542 23.7005 40.7484C24.8713 41.6723 25.5325 42.0025 26.2066 41.9999C27.3126 41.9957 27.8978 41.4537 28.8625 39.5399C29.2349 38.8013 29.6223 38.1064 29.7234 37.9956C29.965 37.7309 30.17 37.7391 31.6444 38.0713C33.7335 38.5421 34.6315 38.4388 35.3278 37.6477C35.8096 37.1 35.945 36.494 35.995 34.6606C36.0171 33.8482 36.0767 33.0767 36.1274 32.9463C36.2346 32.6701 36.5471 32.5508 38.1103 32.1901C39.9443 31.7668 40.7547 31.2414 41.029 30.2978C41.254 29.5232 41.1366 29.0326 40.2907 27.2147C39.945 26.4717 39.7213 25.872 39.7213 25.6885C39.7213 25.3606 39.9688 25.0761 40.843 24.3991C42.2355 23.3206 42.7578 22.7074 42.9497 21.9253C43.1639 21.0527 42.6917 20.1137 41.5794 19.2006C39.7853 17.7278 39.7213 17.6633 39.7213 17.3256C39.7213 17.1248 39.9294 16.5619 40.2907 15.7853C41.137 13.9664 41.2541 13.4769 41.0285 12.7007C40.752 11.7492 40.0223 11.2659 38.2192 10.8397C36.517 10.4374 36.2349 10.3314 36.1283 10.0537C36.0782 9.92329 36.0209 9.21226 36.0009 8.47365C35.9415 6.27815 35.828 5.79863 35.2338 5.23282C34.5434 4.57541 33.6261 4.47917 31.8715 4.87999C30.3271 5.23282 29.9965 5.26164 29.7765 5.06244C29.675 4.9705 29.2756 4.27021 28.8889 3.50626C27.8948 1.54202 27.3194 1.0044 26.2066 1.0001C25.5325 0.997506 24.8713 1.32769 23.7005 2.25162C21.9338 3.64584 22.042 3.64271 20.4337 2.34723C19.2521 1.39546 18.475 0.997416 17.8038 1.00001C17.5085 1.00118 17.1497 1.07074 16.934 1.16877ZM18.5148 3.29202C18.824 3.51969 19.3696 3.9386 19.7272 4.22285C20.6571 4.96208 21.275 5.23801 22 5.23801C22.7835 5.23801 23.3048 4.97829 24.6987 3.8933C26.05 2.84152 26.1435 2.79326 26.3928 3.01896C26.4957 3.11207 26.8794 3.77995 27.2456 4.50307C28.3398 6.66401 28.9454 7.15311 30.4112 7.06C30.8307 7.03332 31.6246 6.90744 32.1754 6.78013C33.2723 6.52677 33.8538 6.488 33.9655 6.6607C34.0054 6.7223 34.0629 7.53808 34.0935 8.47365C34.1923 11.4989 34.521 11.903 37.4697 12.6251C38.271 12.8213 38.9846 13.03 39.0555 13.0888C39.2823 13.2772 39.1972 13.6136 38.6039 14.872C37.7089 16.7705 37.5849 17.5119 38.0196 18.3643C38.2856 18.8859 38.6674 19.2865 39.6729 20.0993C40.6936 20.9244 41.0638 21.298 41.0638 21.503C41.0638 21.6938 40.6529 22.1036 39.6281 22.9347C37.4521 24.6994 37.315 25.3939 38.6039 28.128C39.1972 29.3865 39.2823 29.7228 39.0555 29.9112C38.9846 29.97 38.271 30.1787 37.4697 30.3749C35.8623 30.7685 35.1237 31.098 34.6999 31.6103C34.2621 32.1398 34.1572 32.6454 34.0946 34.5264C34.0635 35.4619 34.0054 36.2778 33.9655 36.3393C33.8507 36.5168 33.2782 36.4716 31.9794 36.1826C29.2299 35.5708 28.5612 35.8945 27.2598 38.4672C26.8858 39.2067 26.4957 39.8879 26.3928 39.981C26.1435 40.2067 26.05 40.1585 24.6987 39.1067C23.3048 38.0217 22.7835 37.762 22 37.762C21.2165 37.762 20.6952 38.0217 19.3013 39.1067C17.95 40.1585 17.8565 40.2067 17.6072 39.981C17.5043 39.8879 17.1206 39.22 16.7544 38.4969C15.6602 36.336 15.0546 35.8469 13.5888 35.94C13.1693 35.9667 12.3754 36.0926 11.8246 36.2199C10.7277 36.4732 10.1462 36.512 10.0345 36.3393C9.99463 36.2778 9.93708 35.4619 9.90647 34.5264C9.80766 31.5011 9.47901 31.097 6.5303 30.3749C5.72899 30.1787 5.01539 29.97 4.94451 29.9112C4.71771 29.7228 4.80283 29.3865 5.39613 28.128C6.68728 25.3891 6.53746 24.6572 4.32346 22.8884C3.3427 22.1049 2.93619 21.6951 2.93619 21.4899C2.93619 21.2918 3.28524 20.9448 4.36257 20.0721C6.54891 18.3011 6.68639 17.6091 5.39613 14.872C4.80175 13.6112 4.71753 13.2773 4.94621 13.0875C5.01799 13.0279 5.72953 12.8189 6.52734 12.6231C8.50882 12.1368 9.11456 11.8147 9.50783 11.0385C9.8142 10.4337 9.9173 9.74002 9.9173 8.28394C9.9173 6.69974 9.96429 6.54879 10.4574 6.54879C10.6585 6.54879 11.2737 6.65291 11.8246 6.78013C14.7124 7.4473 15.4309 7.12052 16.7273 4.55043C17.3653 3.28558 17.6373 2.87814 17.8439 2.87814C17.9038 2.87814 18.2057 3.06444 18.5148 3.29202ZM16.4957 13.4725C15.156 13.8119 14.2313 14.7838 13.9495 16.1483C13.6586 17.5566 14.4353 19.0541 15.8071 19.7297C16.3466 19.9953 16.478 20.0228 17.2098 20.0223C17.9263 20.022 18.0826 19.9908 18.5989 19.7452C19.3383 19.3938 19.8944 18.8375 20.2458 18.0979C20.4913 17.5814 20.5224 17.4251 20.5228 16.7084C20.5232 15.9764 20.4957 15.845 20.2302 15.3053C19.5367 13.8963 17.9317 13.1085 16.4957 13.4725ZM28.2204 13.9927C27.9416 14.1439 14.6655 27.4232 14.5209 27.6954C14.1769 28.3426 14.5678 29.1099 15.2417 29.1099C15.4209 29.1099 15.6556 29.0654 15.7632 29.0111C16.0408 28.8707 29.3237 15.597 29.4791 15.3046C29.8283 14.6476 29.4313 13.8873 28.7419 13.8928C28.5535 13.8943 28.3188 13.9393 28.2204 13.9927ZM17.8794 15.4551C18.4463 15.7483 18.7684 16.4836 18.6015 17.1034C18.4758 17.5707 17.9309 18.059 17.4433 18.1413C16.964 18.2224 16.3166 17.918 16.018 17.4712C15.7489 17.0686 15.775 16.3063 16.0722 15.8888C16.4435 15.3672 17.3083 15.1596 17.8794 15.4551ZM25.8933 23.0522C24.8832 23.389 24.1877 23.9904 23.7538 24.9021C23.5076 25.4193 23.4768 25.5738 23.4768 26.2916C23.4768 27.0232 23.5044 27.1555 23.7698 27.6947C24.4452 29.0669 25.9422 29.8438 27.3501 29.5529C28.7669 29.2601 29.7643 28.263 30.0519 26.8517C30.3366 25.4544 29.5622 23.9447 28.2223 23.2848C27.552 22.9547 26.5005 22.8496 25.8933 23.0522ZM27.3728 25.014C27.9595 25.3105 28.2001 25.7177 28.1566 26.3403C28.0976 27.1853 27.5692 27.6774 26.7209 27.6774C26.1934 27.6774 25.7726 27.3917 25.5046 26.8517C25.2263 26.2907 25.2974 25.8231 25.7345 25.3391C26.2217 24.7997 26.7438 24.6962 27.3728 25.014Z" stroke="white" mask="url(#path-1-outside-1_53_379)"/>
</svg>
