<svg width="45" height="45" viewBox="0 0 45 45" fill="none" xmlns="http://www.w3.org/2000/svg">
<path fill-rule="evenodd" clip-rule="evenodd" d="M4.21875 22.5C4.21875 17.6515 6.14481 13.0016 9.57322 9.57322C13.0016 6.14481 17.6515 4.21875 22.5 4.21875C27.3485 4.21875 31.9984 6.14481 35.4268 9.57322C38.8553 13.0016 40.7812 17.6515 40.7812 22.5C40.7812 27.3485 38.8553 31.9984 35.4268 35.4268C31.9984 38.8553 27.3485 40.7812 22.5 40.7812C17.6515 40.7812 13.0016 38.8553 9.57322 35.4268C6.14481 31.9984 4.21875 27.3485 4.21875 22.5ZM22.5 0C16.5326 0 10.8097 2.37053 6.59011 6.59011C2.37053 10.8097 0 16.5326 0 22.5C0 28.4673 2.37053 34.1904 6.59011 38.41C10.8097 42.6293 16.5326 45 22.5 45C28.4673 45 34.1904 42.6293 38.41 38.41C42.6293 34.1904 45 28.4673 45 22.5C45 16.5326 42.6293 10.8097 38.41 6.59011C34.1904 2.37053 28.4673 0 22.5 0ZM23.9062 13.3594C23.9062 12.7999 23.684 12.2634 23.2884 11.8678C22.8928 11.4722 22.3563 11.25 21.7969 11.25C21.2374 11.25 20.7009 11.4722 20.3053 11.8678C19.9097 12.2634 19.6875 12.7999 19.6875 13.3594V23.2031C19.6876 23.6244 19.8138 24.036 20.0499 24.3849C20.286 24.7337 20.6212 25.0039 21.0122 25.1606L28.0434 27.9731C28.5584 28.1613 29.1265 28.1413 29.6272 27.9178C30.1278 27.6942 30.5218 27.2845 30.7254 26.7754C30.9291 26.2663 30.9265 25.698 30.7184 25.1907C30.5103 24.6835 30.1126 24.2772 29.61 24.0581L23.9062 21.7744V13.3594Z" fill="white"/>
</svg>
