<svg width="44" height="32" viewBox="0 0 44 32" fill="none" xmlns="http://www.w3.org/2000/svg">
<path fill-rule="evenodd" clip-rule="evenodd" d="M0 4.66667C0 2.08933 2.15463 0 4.8125 0H39.1875C41.8454 0 44 2.08933 44 4.66667V27.3333C44 29.9107 41.8454 32 39.1875 32H4.8125C2.15463 32 0 29.9107 0 27.3333V4.66667ZM4.8125 4C4.43281 4 4.125 4.29848 4.125 4.66667V27.3333C4.125 27.7016 4.43281 28 4.8125 28H39.1875C39.5673 28 39.875 27.7016 39.875 27.3333V4.66667C39.875 4.29848 39.5673 4 39.1875 4H4.8125ZM9.625 11.3333C9.625 10.2288 10.5484 9.33333 11.6875 9.33333H30.9375C32.0765 9.33333 33 10.2288 33 11.3333C33 12.4379 32.0765 13.3333 30.9375 13.3333H11.6875C10.5484 13.3333 9.625 12.4379 9.625 11.3333ZM11.6875 17.3333C10.5484 17.3333 9.625 18.2288 9.625 19.3333C9.625 20.4379 10.5484 21.3333 11.6875 21.3333H22.6875C23.8266 21.3333 24.75 20.4379 24.75 19.3333C24.75 18.2288 23.8266 17.3333 22.6875 17.3333H11.6875Z" fill="white"/>
</svg>
