<svg width="46" height="46" viewBox="0 0 46 46" fill="none" xmlns="http://www.w3.org/2000/svg">
<rect x="1.06193" y="1.03947" width="43.8761" height="43.8308" rx="21.9154" stroke="#EFEFEF" stroke-width="1.12387"/>
<path d="M25.9202 30.789C24.9506 30.633 24.0289 30.2214 23.2326 29.5887C22.3098 28.876 21.4621 28.0507 20.7054 27.1282C19.776 26.027 18.8295 24.94 18.0093 23.7255C17.3637 22.7501 16.7862 21.7276 16.4712 20.5524C16.2521 19.8053 16.1947 19.0115 16.3037 18.2352C16.4456 17.3086 16.8883 16.555 17.4942 15.9242C17.7441 15.6764 18.0155 15.4567 18.3045 15.2682C18.4765 15.147 18.6767 15.0844 18.8805 15.088C19.0843 15.0917 19.2826 15.1614 19.451 15.2886C20.2578 15.8209 20.8761 16.643 21.2035 17.6185C21.2596 17.7559 21.2814 17.9075 21.2667 18.0575C21.252 18.2075 21.2012 18.3503 21.1197 18.4711C20.9168 18.7748 20.7054 19.0705 20.5011 19.3741C20.3209 19.6431 20.1335 19.9074 19.9732 20.1906C19.8907 20.3196 19.8469 20.4742 19.8482 20.6324C19.8495 20.7905 19.8957 20.9442 19.9803 21.0716C20.3847 21.7008 20.7763 22.349 21.2162 22.9484C22.0121 24.0407 22.8934 25.053 23.8499 25.9735C24.0627 26.1765 24.2912 26.3558 24.5182 26.5399C24.6149 26.6232 24.7312 26.6741 24.8532 26.6863C24.9751 26.6986 25.0978 26.6718 25.2064 26.6091C25.4497 26.4762 25.6865 26.3291 25.9159 26.1686C26.2338 25.9437 26.5459 25.7124 26.8581 25.4906C26.9868 25.3993 27.1357 25.3492 27.2885 25.3459C27.4412 25.3425 27.5919 25.3861 27.7237 25.4717C28.5288 25.9146 29.1851 26.6311 29.5967 27.5168C29.7125 27.738 29.7647 27.993 29.7464 28.2479C29.7282 28.5028 29.6403 28.7455 29.4946 28.9437C28.7099 30.0858 27.7067 30.7906 26.3728 30.822C26.2215 30.8196 26.0704 30.8086 25.9202 30.789Z" fill="#0B9CEF"/>
</svg>
