<svg width="10" height="16" viewBox="0 0 10 16" fill="none" xmlns="http://www.w3.org/2000/svg">
<path fill-rule="evenodd" clip-rule="evenodd" d="M4.60501 0.898424C3.3617 1.02107 2.3187 1.50694 1.46407 2.36157C0.275443 3.55022 -0.234659 5.24859 0.101507 6.89823C0.174772 7.25772 0.304902 7.65409 0.456744 7.98022C0.52018 8.11651 1.51251 9.93043 2.6619 12.0112C4.84987 15.972 4.80888 15.9039 5.00112 15.9039C5.19334 15.9039 5.15238 15.972 7.34128 12.0091C8.4912 9.92726 9.48353 8.11334 9.54647 7.9782C10.0922 6.80601 10.1488 5.38732 9.69808 4.17581C9.4355 3.46988 9.06145 2.88484 8.53818 2.36157C7.77753 1.60095 6.89341 1.14439 5.80801 0.951766C5.57231 0.909955 4.82437 0.87677 4.60501 0.898424ZM5.25052 3.40512C5.8801 3.47522 6.39047 3.72993 6.82572 4.19133C7.30091 4.69506 7.519 5.29202 7.48629 5.99938C7.46686 6.4189 7.41874 6.61303 7.2444 6.97457C6.93487 7.61656 6.38589 8.08245 5.69065 8.29318C5.4553 8.36451 5.3803 8.37322 5.00112 8.37322C4.62194 8.37322 4.54695 8.36451 4.3116 8.29318C3.80886 8.14081 3.38001 7.85467 3.06089 7.45871C2.87146 7.22368 2.65548 6.80606 2.58022 6.52946C2.50651 6.25849 2.48967 5.69426 2.54688 5.41202C2.76263 4.34713 3.6439 3.52988 4.70771 3.40806C4.82874 3.39421 4.94097 3.38127 4.95711 3.3793C4.97325 3.37734 5.10528 3.38896 5.25052 3.40512Z" fill="white"/>
</svg>
