<svg width="32" height="32" viewBox="0 0 32 32" fill="none" xmlns="http://www.w3.org/2000/svg">
<path fill-rule="evenodd" clip-rule="evenodd" d="M14.7341 0.0207606C13.7104 0.142957 13.3571 0.196954 12.715 0.329099C10.0678 0.873884 7.40084 2.20021 5.46653 3.93393C2.473 6.61699 0.716325 9.86024 0.116855 13.8106C-0.0387533 14.8362 -0.0390036 17.1399 0.116417 18.1256C0.719703 21.9516 2.27654 25.0141 4.88389 27.504C7.07636 29.5977 9.58299 30.952 12.4935 31.6153C12.8614 31.6993 13.2697 31.7672 13.4007 31.7665C14.0468 31.7628 14.6708 31.1333 14.6708 30.4852C14.6708 30.0715 14.3508 29.549 13.9801 29.3573C13.8853 29.3083 13.5305 29.2085 13.1916 29.1354C8.01639 28.0205 4.01213 24.0261 2.87813 18.8474C2.6542 17.825 2.58099 17.0934 2.58068 15.8754C2.58018 13.8261 2.98769 12.046 3.88236 10.1899C5.86722 6.07171 9.66339 3.32933 14.2961 2.66679C15.0927 2.55285 17.0658 2.57068 17.8938 2.69926C19.759 2.98895 21.35 3.55927 22.9154 4.49942L23.432 4.8097L22.8684 5.63054C22.5585 6.08203 22.3049 6.51207 22.3049 6.58621C22.3049 6.66036 22.3609 6.77166 22.4293 6.83354C22.5491 6.94204 22.635 6.93897 24.8225 6.74664C26.0704 6.63689 27.1695 6.53196 27.2649 6.51332C27.5227 6.46308 27.801 6.19973 27.8452 5.96415C27.874 5.81099 27.7221 5.17773 27.25 3.48249C26.9015 2.23068 26.571 1.15644 26.5156 1.09525C26.3781 0.943335 26.1691 0.955661 26.0159 1.12485C25.9459 1.20231 25.6845 1.56126 25.4352 1.9226C25.1858 2.28393 24.9603 2.60265 24.9341 2.63087C24.9079 2.65915 24.7349 2.58545 24.5498 2.46719C22.7224 1.29966 20.5272 0.481453 18.3005 0.138014C17.6727 0.0412206 15.2345 -0.0389298 14.7341 0.0207606ZM14.6666 5.75643C14.5505 5.83464 14.3914 5.99369 14.3132 6.10981L14.171 6.32092L14.1731 11.6769L14.1751 17.0329L18.9439 19.4947C21.6676 20.9007 23.8116 21.9706 23.9434 21.9895C24.3162 22.0429 24.6028 21.9575 24.8373 21.723C25.2491 21.3112 25.2614 20.6613 24.8646 20.2812C24.7656 20.1863 22.7907 19.1297 20.4758 17.9331L16.267 15.7575L16.2357 11.0094L16.2044 6.26129L16.0291 6.03154C15.9327 5.90515 15.7722 5.75949 15.6725 5.70794C15.3946 5.56422 14.9176 5.58724 14.6666 5.75643ZM29.1556 9.35982C28.6575 9.58613 28.3293 10.1367 28.3909 10.6427C28.437 11.0215 28.8021 11.9747 28.9836 12.1905C29.5095 12.8154 30.5418 12.7639 31.0161 12.0891C31.2922 11.6961 31.3072 11.3269 31.0743 10.6589C30.7905 9.84522 30.6259 9.59808 30.2397 9.40562C29.8547 9.21372 29.5093 9.19914 29.1556 9.35982ZM30.3542 14.1877C30.0878 14.2676 29.7893 14.4914 29.6198 14.7387C29.4848 14.9354 29.4667 15.0375 29.4478 15.7129C29.4243 16.5477 29.4808 16.832 29.7288 17.1267C30.2756 17.7765 31.283 17.7215 31.7791 17.0149C31.9524 16.7681 31.9695 16.6957 31.9929 16.1132C32.0281 15.2381 31.9371 14.8675 31.6057 14.5367C31.2454 14.1768 30.8024 14.0533 30.3542 14.1877ZM29.3699 19.3065C29.0298 19.5222 28.939 19.6547 28.725 20.248C28.3874 21.1841 28.3961 21.5899 28.7635 22.0357C29.3345 22.7285 30.4548 22.6321 30.8587 21.8555C31.0468 21.4938 31.3148 20.6259 31.3148 20.3785C31.3148 19.6568 30.7659 19.129 30.0156 19.129C29.7214 19.129 29.5952 19.1637 29.3699 19.3065ZM27.2072 23.692C26.9204 23.8222 26.2703 24.5531 26.0589 24.9833C25.6772 25.7597 26.202 26.7283 27.0484 26.8096C27.6417 26.8666 27.9783 26.6604 28.5858 25.8672C28.9996 25.327 29.1178 24.946 29.0032 24.5219C28.9183 24.2076 28.5863 23.8147 28.2849 23.6716C28.0032 23.5379 27.5266 23.5469 27.2072 23.692ZM23.4742 27.1644C22.6471 27.6085 22.2753 27.9446 22.1267 28.3828C21.7939 29.3639 22.8673 30.3209 23.8458 29.9155C24.2449 29.7502 25.018 29.2115 25.1658 28.9958C25.3487 28.7289 25.4212 28.3597 25.3584 28.0137C25.2998 27.6903 25.1775 27.5046 24.847 27.237C24.6488 27.0767 24.5486 27.0441 24.1941 27.0252C23.8372 27.006 23.7307 27.0266 23.4742 27.1644ZM18.7072 29.1448C18.4319 29.2112 18.1413 29.2994 18.0615 29.3409C17.6996 29.5284 17.3657 30.0459 17.3637 30.4226C17.3598 31.1271 17.9694 31.7656 18.6476 31.7675C18.8614 31.7681 19.9305 31.5191 20.1078 31.4274C21.0217 30.9549 21.0292 29.6399 20.1208 29.1604C19.781 28.981 19.4024 28.9768 18.7072 29.1448Z" fill="white"/>
</svg>
