<svg width="24" height="9" viewBox="0 0 24 9" fill="none" xmlns="http://www.w3.org/2000/svg">
<path d="M10.2635 8.35889H8.34462L9.54484 0.149414H11.4636L10.2635 8.35889Z" fill="#272959"/>
<path d="M17.2205 0.34951C16.842 0.183403 16.2417 0 15.4994 0C13.6044 0 12.27 1.11783 12.2618 2.71598C12.2461 3.8951 13.2172 4.55001 13.9436 4.94316C14.686 5.34491 14.9383 5.60713 14.9383 5.96523C14.9308 6.5152 14.3384 6.76872 13.786 6.76872C13.0199 6.76872 12.6094 6.63801 11.9855 6.33203L11.7329 6.20087L11.4643 8.04371C11.9144 8.27053 12.7436 8.47181 13.6044 8.48063C15.6179 8.48063 16.9287 7.3801 16.9442 5.67701C16.9519 4.74247 16.4391 4.02638 15.3335 3.44124C14.6624 3.06561 14.2513 2.81233 14.2513 2.428C14.2592 2.0786 14.599 1.72073 15.3566 1.72073C15.9804 1.70321 16.4388 1.86908 16.786 2.03507L16.9596 2.12225L17.2205 0.34951V0.34951Z" fill="#272959"/>
<path d="M19.7715 5.45056C19.9295 4.97894 20.5376 3.15362 20.5376 3.15362C20.5296 3.17115 20.6953 2.67329 20.7901 2.36766L20.9242 3.07503C20.9242 3.07503 21.2875 5.04011 21.3665 5.45056C21.0666 5.45056 20.1505 5.45056 19.7715 5.45056ZM22.1401 0.149414H20.6559C20.1981 0.149414 19.8504 0.297761 19.6529 0.830557L16.8026 8.35877H18.8161C18.8161 8.35877 19.1476 7.34553 19.2188 7.1273C19.4397 7.1273 21.3984 7.1273 21.6825 7.1273C21.7376 7.41552 21.9115 8.35877 21.9115 8.35877H23.6882L22.1401 0.149414V0.149414Z" fill="#272959"/>
<path d="M6.74181 0.149414L4.86258 5.74749L4.65722 4.61213C4.30979 3.30208 3.22017 1.87874 2.00421 1.17101L3.72553 8.35018H5.75471L8.7709 0.149414H6.74181V0.149414Z" fill="#272959"/>
<path d="M3.11891 0.149414H0.0315846L0 0.315289C2.40831 0.996548 4.00328 2.6387 4.65859 4.61248L3.98744 0.839495C3.87695 0.315173 3.53738 0.16671 3.11891 0.149414Z" fill="#272959"/>
</svg>
